<svg width="250" height="250" version="1.1" viewBox="0 0 250 250" xml:space="preserve" xmlns="http://www.w3.org/2000/svg"><g fill="#fff" opacity=".25"><path d="m110.51 22.81-44.135 41.486 61.437 26.331z" fill-opacity=".7"/><path d="m66.375 64.297 61.437 26.331-63.853 14.568z" fill-opacity=".5"/><path d="m63.96 105.2 58.713 48.332 5.1398-62.9z" fill-opacity=".6"/><path d="m0 87.502 51.257 59.793 12.702-42.1z" fill-opacity=".50196"/><path d="m110.51 22.81 39.49-22.81-22.188 90.628z" fill-opacity=".8"/><path d="m150 0 53.029 65.32-75.217 25.308z" fill-opacity=".6"/><path d="m150 0 53.029 65.32 13.888-21.812z" fill-opacity=".7"/><path d="m203.03 65.32 46.971-4.8945-33.083-16.918z" fill-opacity=".5"/><path d="m127.81 90.628 34.528 19.057 40.689-44.365z" fill-opacity=".50196"/><path d="m63.96 105.2-12.702 42.1 71.415 6.2324z" fill-opacity=".9"/><path d="m51.257 147.29-6.5446 64.955 77.96-58.722z" fill-opacity=".6"/><path d="m44.713 212.25 105.29 37.75-27.327-96.473z" fill-opacity=".7"/><path d="m127.81 90.628-5.1398 62.9 39.668-43.843z" fill-opacity=".8"/><path d="m0 87.502v92.27l51.257-32.477z" fill-opacity=".8"/><path d="m203.03 65.32-40.689 44.365 87.66-49.259z" fill-opacity=".6"/><path d="m250 60.425-127.33 93.102 107.06-28.527z" fill-opacity=".9"/><path d="m162.34 109.68 87.66-49.259-127.33 93.102z" fill-opacity=".5"/><path d="m122.67 153.53 27.327 96.473 55.089-67.936z" fill-opacity=".8"/><path d="m122.67 153.53 82.416 28.536 24.64-57.064z" fill-opacity=".50196"/><path d="m229.73 125 20.271 49.964-44.911 7.0992z" fill-opacity=".6"/><path d="m205.09 182.06-55.089 67.936 100-75.036z" fill-opacity=".7"/><path d="m250 174.96-100 75.036h100z" fill-opacity=".9"/><path d="m250 60.425-20.271 64.575 20.271 49.964z" fill-opacity=".8"/><path d="M 150,0 216.91747,43.50765 250,0 Z" fill-opacity=".50196"/><path d="m216.92 43.508 33.083-43.508v60.425z" fill-opacity=".8"/><path d="m0 87.502 63.96 17.693 2.4157-40.899z" fill-opacity=".7"/><path d="m0 0v87.502l66.375-23.205z" fill-opacity=".6"/><path d="m0 0 66.375 64.297 44.135-41.486z" fill-opacity=".9"/><path d="m150 0-39.49 22.81-110.51-22.81z" fill-opacity=".6"/><path d="m51.257 147.29-6.5446 64.955-44.713-32.477z" fill-opacity=".5"/><path d="m44.713 212.25-44.713 37.75h55.255z" fill-opacity=".8"/><path d="m44.713 212.25 10.542 37.75h94.745z" fill-opacity=".50196"/><path d="m44.713 212.25-44.713-32.477v70.228z" fill-opacity=".9"/></g></svg>
