<svg width="800" height="500" version="1.1" viewBox="0 0 211.67 132.29" xml:space="preserve" xmlns="http://www.w3.org/2000/svg" xmlns:xlink="http://www.w3.org/1999/xlink"><defs><radialGradient id="radialGradient34047" cx="106.32" cy="-59.741" r="55.405" gradientTransform="matrix(1.9332 0 0 1.2232 -99.701 139.22)" gradientUnits="userSpaceOnUse"><stop stop-color="#44b5ef" stop-opacity=".74902" offset="0"/><stop stop-color="#7c84d2" stop-opacity=".63922" offset=".28669"/><stop stop-color="#b554b5" stop-opacity=".52941" offset=".65769"/><stop stop-color="#e352a8" stop-opacity=".25" offset="1"/></radialGradient><mask id="mask36331" maskUnits="userSpaceOnUse"><rect y="-1.7764e-15" width="211.67" height="132.29" fill="url(#linearGradient36335)" fill-rule="evenodd" style="paint-order:stroke markers fill"/></mask><linearGradient id="linearGradient36335" x1="254.33" x2="254.33" y1="8.7696" y2="136.05" gradientTransform="matrix(3.1634 0 0 1.0393 -698.72 -9.1145)" gradientUnits="userSpaceOnUse"><stop offset=".5"/><stop stop-color="#fff" offset=".5"/></linearGradient><linearGradient id="linearGradient23223" x1="-165.45" x2="-165.45" y1="484.65" y2="423.37" gradientUnits="userSpaceOnUse"><stop stop-color="#44b5ef" stop-opacity=".50196" offset="0"/><stop stop-color="#44b5ef" stop-opacity="0" offset="1"/></linearGradient><filter id="filter23519" x="-.0087526" y="-.041674" width="1.0175" height="1.0833" color-interpolation-filters="sRGB"><feGaussianBlur stdDeviation="0.65933749"/></filter><filter id="filter23523" x="-.031107" y="-.15094" width="1.0622" height="1.2926" color-interpolation-filters="sRGB"><feGaussianBlur stdDeviation="2.6373535"/></filter><mask id="mask23629" maskUnits="userSpaceOnUse"><g transform="translate(-271.28 423.37)"><g transform="translate(271.28 -423.37)" fill="#fff"><rect x="-271.28" y="423.37" width="211.67" height="61.284" fill="#fff" fill-rule="evenodd" style="paint-order:stroke markers fill"/><path d="m-78.725 486.1-20.754-47.213-2.6e-4 1e-3c-0.0435 0.1-19.366 46.74-19.366 46.74" fill="#000"/><path d="m-57.604 486.03-22.794-28.699h-2e-4c-0.0283 0.034-23.669 28.649-23.669 28.649" fill="#000"/><path d="m-221.43 485.86-26.378-32.908c-8.6887 10.893-17.377 21.785-26.066 32.678" fill="#000"/><path d="m-88.141 472.94-23.405-17.055-2.5e-4 1e-3c-0.0845 0.063-32.568 24.531-32.568 24.531" fill="#000"/><path d="m-121.89 486.15-28.684-33.046h-1e-4l-25.818 30.959" fill="#000"/><path d="m-97.931 485.52-26.646-40.921-27.895 41.287" fill="#000"/><path d="m-134.33 485.47-51.044-43.157c-7.9292 6.7598-42.673 37.08-50.603 43.84" fill="#000"/><path d="m-196.76 485.71-25.407-47.172h-1e-3l-25.587 47.618" fill="#000"/><path d="m-194.1 476.85-10.57-19.697c-1.956 3.549-3.885 7.2713-5.841 10.82" fill="#000"/></g></g></mask><filter id="filter1070" x="-.0026206" y="-.0090511" width="1.0052" height="1.0181" color-interpolation-filters="sRGB"><feGaussianBlur stdDeviation="0.23112054"/></filter><filter id="filter1225" x="-.012006" y="-.016047" width="1.0249" height="1.0342" color-interpolation-filters="sRGB"><feGaussianBlur stdDeviation="0.92908291"/></filter></defs><g filter="url(#filter1225)" opacity=".5"><rect transform="translate(-.099997)" y="-2.2204e-16" width="211.67" height="132.29" fill="url(#radialGradient34047)" fill-rule="evenodd" filter="url(#filter1070)" mask="url(#mask36331)" opacity=".75" style="paint-order:stroke markers fill"/><g transform="translate(-.099997)" fill="none" opacity="1" stroke="#e352a8" stroke-width=".52917"><path d="m-5.8251 69.127 226.89 0.0074 2.9066 2.2463-231.07-0.1466-1.215 3.2343 231.36-0.26097 0.91865 3.0935-232.5-0.49176 0.15406 3.6663 232.35-0.05836v4.0699l-232.68-0.51617 0.23586 4.5717 232.44 0.1422v5.3128l-231.07 0.22547v6.09l231.07 0.0568v7.439l-231.07-0.11481v9.8584l231.07-0.0561v12.235l-232.63 0.39185"/><path d="m-3.1651e-4 67.638 3.3349-1.4919h8.9358l-12.271 5.1719-1.7974 0.67028s-0.0207 4.7155 0.16212 4.6107c0.18282-0.10484 23.011-10.453 23.011-10.453h9.3504l-32.326 15.891 0.34361 7.0374 40.803-22.929h8.7972l-49.725 31.95-1.4015 13.85 59.01-45.8h9.465l-72.231 67.868 21.098 4.9438 60.255-72.811h9.1342l-43.083 72.52 26.067 0.29143 25.933-72.938h8.7464l-9.1387 72.647h25.991l-8.0607-72.647h9.0094l26.033 72.647h26.078l-43.316-72.647h9.3844l59.659 72.647h26.057l-77.068-72.647h9.485l63.962 49.196-1.0665-13.265-54.591-35.931h9.0517l44.22 24.951-0.0826-7.3317-35.498-17.619h9.5692l27.29 12.641-0.5291-5.0451-18.706-7.5957h8.9191l6.3217 2.6121"/></g><rect transform="translate(271.18 -419.97)" x="-271.28" y="423.37" width="211.67" height="61.284" fill="url(#linearGradient23223)" fill-rule="evenodd" filter="url(#filter1070)" mask="url(#mask23629)" opacity=".75" style="paint-order:stroke markers fill"/><g transform="translate(283.91 -189.64)" fill="none" filter="url(#filter23519)" opacity="1" stroke="#82cdf4"><g stroke-width=".79375px"><path d="m-100.27 235.82-11.905-27.147h-1.3e-4c-0.0217 0.051-8.4162 19.487-8.4162 19.487"/><path d="m-70.304 255.82-22.794-28.7-4e-4 1e-3c-0.0565 0.068-10.945 13.278-10.945 13.278"/><path d="m-286.54 255.59 216.24 0.231"/><path d="m-249.84 236.14-10.636-13.229-26.066 32.678"/><path d="m-245.2 248.21-13.93-6.647-24.452 13.908"/><path d="m-199.16 255.79-27.612-20.699-29.075 20.699"/><path d="m-100.84 242.73-23.405-17.055c-10.856 8.1773-21.712 16.355-32.568 24.532"/><path d="m-147.05 241.66-16.216-18.766h-3e-4l-11.252 13.081"/><path d="m-154.79 248.57-20.869-13.32h-2e-4l-27.1 17.743"/><path d="m-147 255.43-11.922-6.463h-2e-4l-10.427 5.705"/><path d="m-124.64 255.35-12.055-15.882h-1e-4l-11.488 15.147"/></g><path d="m-75.238 255.42-23.526-13.928h-3e-4c-0.0428 0.026-16.575 9.869-16.575 9.869" stroke-width=".79137px"/><path d="m-110.6 255.49-12.123-10.556h-9e-5c-0.0156 0.013-6.0449 4.982-6.0449 4.982" stroke-width=".79137px"/><g stroke-width=".79375px"><path d="m-76.345 254.77-13.28-19.483h-1e-4c-0.0147 0.022-5.6641 8.355-5.6641 8.355"/><path d="m-127.88 228.75-9.3935-14.362h-1e-4l-14.529 21.772"/><path d="m-156.38 247.41-7.3382-13.427-1e-4 1e-3 -3.4745 6.672"/><path d="m-172.7 233.7-25.34-21.428c-6.2426 5.4928-12.485 10.986-18.728 16.479"/><path d="m-221.03 234.18-13.843-25.856h-1e-3l-19.257 35.775"/><path d="m-206.8 246.64-10.543-19.524-5.868 10.646"/><path d="m-219.42 230.88-2.387 1.844"/><path d="m-192.89 246.76-7.0987-12.312-3e-4 1e-3 -8.1549 14.606"/><path d="m-176.37 235.71-6.9227-8.497h-2e-4l-12.088 15.226"/><path d="m-131.83 231.39-3.3436-4.388h-1e-4l-14.205 17.532"/></g><path d="m-168.93 255.73c-0.41484-0.68807-11.746-11.555-11.746-11.555l-11.813 11.588" stroke-linecap="round" stroke-linejoin="round" stroke-width=".79375"/></g><g transform="translate(283.82 -110.67)" fill="none" filter="url(#filter23523)" opacity="1" stroke="#44b5ef"><g stroke-linecap="round" stroke-linejoin="round"><path d="m-75.151 176.46-23.526-13.929-16.575 9.8694" stroke-width=".79137"/><path d="m-110.52 176.52-12.123-10.556-6.045 4.9814" stroke-width=".79137"/><g stroke-width=".79375"><path d="m-124.56 176.39-12.055-15.882-11.488 15.147"/><path d="m-146.91 176.47-11.922-6.4636-10.427 5.7051"/><path d="m-168.85 176.4c-0.41484-0.68807-11.746-11.555-11.746-11.555l-11.813 11.588"/></g></g><g stroke-width=".79375"><path d="m-76.258 175.8-13.28-19.483-5.6641 8.3547"/><path d="m-100.75 163.77-23.405-17.054-32.568 24.532"/><path d="m-154.71 169.61-20.869-13.32-27.1 17.743"/><path d="m-199.07 176.83-27.612-20.698-29.075 20.698"/><path d="m-245.11 169.25-13.929-6.6471-24.453 13.908"/><path d="m-70.217 176.85-22.794-28.7-10.946 13.279"/><path d="m-100.19 156.86-11.905-27.146-8.4163 19.487"/><path d="m-131.75 152.43-3.3436-4.3886-14.205 17.532"/><path d="m-156.29 168.45-7.3381-13.426-3.4746 6.6722"/><path d="m-146.97 162.7-16.216-18.766-11.252 13.081"/><path d="m-192.8 167.8-7.0987-12.312-8.1552 14.607"/><path d="m-206.71 167.68-10.543-19.525-5.8675 10.647"/><path d="m-176.28 156.75-6.9227-8.4963-12.089 15.226"/><path d="m-220.94 155.21-13.844-25.856-19.258 35.775"/><path d="m-249.76 157.17-10.636-13.229-26.066 32.678"/><path d="m-172.62 154.74-25.34-21.428-18.727 16.479"/><path d="m-219.33 151.92-2.3878 1.8434"/><path d="m-127.8 149.79-9.3935-14.362-14.529 21.772"/></g><path d="m-286.46 176.62 216.24 0.23127" stroke-linecap="round" stroke-linejoin="round" stroke-width=".79375"/></g><g transform="translate(283.91 -268.53)" fill="none" opacity="1" stroke="#c0e6f9"><path d="m-168.93 334.31c-0.41484-0.68807-11.746-11.555-11.746-11.555l-11.813 11.588" stroke-linecap="round" stroke-linejoin="round" stroke-width=".79375"/><g stroke-width=".79375px"><path d="m-100.27 314.72-11.905-27.147-2.6e-4 1e-3c-0.0435 0.1-8.416 19.486-8.416 19.486"/><path d="m-70.304 334.71-22.794-28.699h-2e-4c-0.0283 0.034-10.945 13.279-10.945 13.279"/><path d="m-286.54 334.48 216.24 0.231"/><path d="m-249.84 315.03-10.636-13.229-26.066 32.678"/><path d="m-245.2 327.1-13.93-6.647-24.452 13.908"/><path d="m-199.16 334.68-27.612-20.699-29.075 20.699"/><path d="m-100.84 321.62-23.405-17.055-2.5e-4 1e-3c-0.0845 0.063-32.568 24.531-32.568 24.531"/><path d="m-147.05 320.55-16.216-18.766h-1e-4l-11.252 13.081"/><path d="m-154.79 327.46-20.869-13.32h-1e-4l-27.1 17.743"/><path d="m-147 334.32-11.922-6.464h-3e-4l-10.427 5.705"/><path d="m-124.64 334.24-12.055-15.882h-3e-4l-11.488 15.147"/></g><path d="m-75.238 334.31-23.526-13.929h-5e-4c-0.0857 0.051-16.574 9.869-16.574 9.869" stroke-width=".79137px"/><path d="m-110.6 334.38-12.123-10.556-1.8e-4 1e-3c-0.0312 0.025-6.0448 4.981-6.0448 4.981" stroke-width=".79137px"/><g stroke-width=".79375px"><path d="m-76.345 333.66-13.28-19.483h-2e-4c-0.0293 0.044-5.664 8.355-5.664 8.355"/><path d="m-127.88 307.64-9.3935-14.362-14.529 21.772"/><path d="m-156.38 326.3-7.3382-13.426-3.4746 6.672"/><path d="m-172.7 312.59-25.34-21.429c-6.2426 5.4929-12.485 10.986-18.728 16.479"/><path d="m-221.03 313.07-13.843-25.856h-1e-3l-19.257 35.775"/><path d="m-206.8 325.53-10.543-19.524-5.868 10.647"/><path d="m-219.42 309.77-2.387 1.844"/><path d="m-192.89 325.65-7.0987-12.313-3e-4 1e-3 -8.1549 14.606"/><path d="m-176.37 314.6-6.9227-8.497-4e-4 1e-3 -12.088 15.225"/><path d="m-131.83 310.28-3.3436-4.388h-1e-4l-14.205 17.532"/></g></g></g></svg>
