<svg width="800" height="500" version="1.1" viewBox="0 0 211.67 132.29" xml:space="preserve" xmlns="http://www.w3.org/2000/svg" xmlns:xlink="http://www.w3.org/1999/xlink"><defs><filter id="filter30080" x="-.021068" y="-.097135" width="1.0633" height="1.1762" color-interpolation-filters="sRGB"><feGaussianBlur stdDeviation="0.66624"/></filter><filter id="filter30088" x="-.024739" y="-.061168" width="1.0479" height="1.1008" color-interpolation-filters="sRGB"><feGaussianBlur stdDeviation="0.66624"/></filter><filter id="filter30100" x="-.037085" y="-.075718" width="1.0816" height="1.1255" color-interpolation-filters="sRGB"><feGaussianBlur stdDeviation="0.66624"/></filter><filter id="filter30112" x="-.040391" y="-.078992" width="1.0807" height="1.1551" color-interpolation-filters="sRGB"><feGaussianBlur stdDeviation="0.66624"/></filter><filter id="filter30116" x="-.039673" y="-.093381" width="1.0771" height="1.1514" color-interpolation-filters="sRGB"><feGaussianBlur stdDeviation="0.66624"/></filter><filter id="filter30140" x="-.094093" y="-.25229" width="1.1884" height="1.5007" color-interpolation-filters="sRGB"><feGaussianBlur stdDeviation="2.66496"/></filter><filter id="filter30144" x="-.093051" y="-.12769" width="1.1687" height="1.2513" color-interpolation-filters="sRGB"><feGaussianBlur stdDeviation="2.66496"/></filter><filter id="filter30148" x="-.13048" y="-.17424" width="1.261" height="1.3396" color-interpolation-filters="sRGB"><feGaussianBlur stdDeviation="2.66496"/></filter><filter id="filter30152" x="-.13813" y="-.27689" width="1.2905" height="1.5197" color-interpolation-filters="sRGB"><feGaussianBlur stdDeviation="2.66496"/></filter><filter id="filter30156" x="-.135" y="-.19268" width="1.2701" height="1.3737" color-interpolation-filters="sRGB"><feGaussianBlur stdDeviation="2.66496"/></filter><radialGradient id="radialGradient34047" cx="106.32" cy="-59.741" r="55.405" gradientTransform="matrix(1.9332 0 0 1.2232 -99.701 139.22)" gradientUnits="userSpaceOnUse"><stop stop-color="#44b5ef" stop-opacity=".75" offset="0"/><stop stop-color="#7c84d2" stop-opacity=".63922" offset=".28669"/><stop stop-color="#b554b5" stop-opacity=".52941" offset=".65769"/><stop stop-color="#e352a8" stop-opacity=".25" offset="1"/></radialGradient><linearGradient id="linearGradient35569" x1="105.83" x2="105.83" y1="65.696" y2="7.1054e-15" gradientUnits="userSpaceOnUse"><stop stop-color="#44b5ef" offset="0"/><stop stop-color="#44b5ef" stop-opacity="0" offset=".7"/></linearGradient><mask id="mask36331" maskUnits="userSpaceOnUse"><rect y="-1.7764e-15" width="211.67" height="132.29" fill="url(#linearGradient36335)" fill-rule="evenodd" style="paint-order:stroke markers fill"/></mask><linearGradient id="linearGradient36335" x1="254.33" x2="254.33" y1="8.7696" y2="136.05" gradientTransform="matrix(3.1634 0 0 1.0393 -698.72 -9.1145)" gradientUnits="userSpaceOnUse"><stop offset=".5"/><stop stop-color="#fff" offset=".5"/></linearGradient><filter id="filter942" x="-.020951" y="-.016047" width="1.0339" height="1.0342" color-interpolation-filters="sRGB"><feGaussianBlur stdDeviation="0.92908291"/></filter></defs><g filter="url(#filter942)" opacity=".25"><rect y="-2.2204e-16" width="211.67" height="132.29" fill="url(#radialGradient34047)" fill-rule="evenodd" mask="url(#mask36331)" opacity="1" style="paint-order:stroke markers fill"/><rect x="-5.0863e-6" y="4.4409e-16" width="211.67" height="65.696" fill="url(#linearGradient35569)" fill-rule="evenodd" opacity="1" style="paint-order:stroke markers fill"/><g fill="none" stroke="#e352a8"><path d="m-5.8251 69.127 226.89 0.0074 2.9066 2.2463-231.07-0.1466-1.215 3.2343 231.36-0.26097 0.91865 3.0935-232.5-0.49176 0.15406 3.6663 232.35-0.05836v4.0699l-232.68-0.51617 0.23586 4.5717 232.44 0.1422v5.3128l-231.07 0.22547v6.09l231.07 0.0568v7.439l-231.07-0.11481v9.8584l231.07-0.0561v12.235l-232.63 0.39185" stroke-width=".52917"/><path d="m-3.1651e-4 67.638 3.3349-1.4919h8.9358l-12.271 5.1719-1.7974 0.67028s-0.0207 4.7155 0.16212 4.6107c0.18282-0.10484 23.011-10.453 23.011-10.453h9.3504l-32.326 15.891 0.34361 7.0374 40.803-22.929h8.7972l-49.725 31.95-1.4015 13.85 59.01-45.8h9.465l-72.231 67.868 21.098 4.9438 60.255-72.811h9.1342l-43.083 72.52 26.067 0.29143 25.933-72.938h8.7464l-9.1387 72.647h25.991l-8.0607-72.647h9.0094l26.033 72.647h26.078l-43.316-72.647h9.3844l59.659 72.647h26.057l-77.068-72.647h9.485l63.962 49.196-1.0665-13.265-54.591-35.931h9.0517l44.22 24.951-0.0826-7.3317-35.498-17.619h9.5692l27.29 12.641-0.5291-5.0451-18.706-7.5957h8.9191l6.3217 2.6121" stroke-width=".52917"/></g><g transform="translate(1.6309 56.626)"><g transform="translate(402.3 -92.981)"><path d="m-293.04 101.57-55.732 0.174c0.072-0.108 27.691-41.52 27.691-41.52v1e-3z"/><g fill="none" stroke-width=".93581px"><path d="m-293.04 101.57-55.733 0.1733 27.692-41.519z" filter="url(#filter30148)" stroke="#44b5ef"/><path d="m-293.05 101.57-55.733 0.1735v-2e-4c0.036-0.0538 27.692-41.519 27.692-41.519v1e-4z" filter="url(#filter30100)" stroke="#82cdf4"/><path d="m-293.05 101.57-55.732 0.174c0.072-0.108 27.691-41.52 27.691-41.52v1e-3z" stroke="#c0e6f9"/></g></g><g transform="translate(354.55 -120.11)"><path d="m-188 129.14-91.372 0.239c0.059-0.074 45.399-57.13 45.399-57.13v2e-4c0.06 0.0738 45.973 56.891 45.973 56.891"/><g fill="none" stroke-width="1.3229"><path d="m-188.51 128.48-91.371 0.2383 1e-3 -7e-4 45.398-57.129 1e-3 7e-4c0.178 0.2213 45.971 56.891 45.971 56.891" filter="url(#filter30144)" stroke="#44b5ef"/><path d="m-188.51 128.48-91.371 0.2385v-4e-4c0.118-0.1482 45.399-57.129 45.399-57.129v4e-4c0.12 0.1476 45.972 56.891 45.972 56.891" filter="url(#filter30088)" stroke="#82cdf4"/><path d="m-188.51 128.48-91.372 0.239c0.059-0.074 45.399-57.13 45.399-57.13v2e-4c7e-3 0.0089 0.68827 0.85163 1.8796 2.3258 8.6366 10.687 44.093 54.565 44.093 54.565" stroke="#c0e6f9"/></g></g><g transform="matrix(1.0018 0 0 .99964 351 -3.3536)"><path d="m-275.66 11.774-50.575 0.12c0.032-0.037 25.129-28.778 25.129-28.778 0.033 0.037 25.446 28.658 25.446 28.658"/><g fill="none" stroke-width="1.18px"><path d="m-275.66 11.924-50.575 0.1201v-3e-4l25.129-28.778v3e-4z" filter="url(#filter30152)" stroke="#44b5ef"/><path d="m-275.66 11.924-50.575 0.1201 1e-3 -3e-4c0.065-0.0746 25.128-28.778 25.128-28.778l1e-3 3e-4c0.066 0.0743 25.445 28.658 25.445 28.658" filter="url(#filter30112)" stroke="#82cdf4"/><path d="m-275.66 11.923-50.575 0.12c0.032-0.037 25.129-28.778 25.129-28.778 0.033 0.037 25.446 28.658 25.446 28.658" stroke="#c0e6f9"/></g></g><g transform="matrix(1.0082 0 0 .98268 427.05 -48.934)" stroke-width="1.3291"><path d="m-371.69 58.706-57.053 0.163c0.073-0.102 28.347-39.032 28.347-39.032 0.075 0.101 28.706 38.869 28.706 38.869"/><g fill="none" stroke-width="1.3291"><path d="m-371.69 58.706-57.054 0.1628 28.348-39.032z" filter="url(#filter30156)" stroke="#44b5ef"/><path d="m-371.69 58.706-57.054 0.1629v-2e-4c0.037-0.0506 28.348-39.032 28.348-39.032v2e-4c0.037 0.0504 28.706 38.869 28.706 38.869" filter="url(#filter30116)" stroke="#82cdf4"/><path d="m-371.69 58.706-57.053 0.163c0.073-0.102 28.347-39.032 28.347-39.032 0.075 0.101 28.706 38.869 28.706 38.869" stroke="#c0e6f9"/></g></g><g transform="matrix(1.0611 0 0 1 290.67 -116.75)" stroke-width="1.2843"><path d="m-75.993 125.21-91.979 0.11799c0.119-0.073 45.701-28.339 45.701-28.339z"/><g fill="none" stroke-width="1.2843"><path d="m-75.992 125.11-91.98 0.1182 45.702-28.339z" filter="url(#filter30140)" stroke="#44b5ef"/><path d="m-75.993 125.21-91.98 0.1182 1e-3 -1e-4c0.059-0.0368 45.701-28.339 45.701-28.339v1e-4z" filter="url(#filter30080)" stroke="#82cdf4"/><path d="m-75.994 125.21-91.979 0.118c0.119-0.073 45.701-28.339 45.701-28.339z" stroke="#c0e6f9"/></g></g></g></g></svg>
