<svg width="350" height="350" version="1.1" viewBox="0 0 350 350" xmlns="http://www.w3.org/2000/svg">
 <defs>
  <linearGradient id="linearGradient1865" x1="-2275.5" x2="-2071.7" y1="584.37" y2="584.37" gradientTransform="translate(2821.5,-436.99)" gradientUnits="userSpaceOnUse">
   <stop stop-color="#e0138c" offset="0"/>
   <stop stop-color="#8857c3" offset=".65"/>
   <stop stop-color="#44b5ef" offset="1"/>
  </linearGradient>
  <linearGradient id="linearGradient1403" x1="-2271.7" x2="-2073.6" y1="318.42" y2="318.42" gradientTransform="translate(2821.5,-171.03)" gradientUnits="userSpaceOnUse">
   <stop stop-color="#ec8bc5" offset="0"/>
   <stop stop-color="#ad91d8" offset=".65"/>
   <stop stop-color="#82cdf4" offset="1"/>
  </linearGradient>
  <linearGradient id="linearGradient5761" x1="-2267.9" x2="-2075.5" y1="52.474" y2="52.474" gradientTransform="translate(2821.5,94.938)" gradientUnits="userSpaceOnUse">
   <stop stop-color="#f5c5e2" offset="0"/>
   <stop stop-color="#d7c7eb" offset=".65"/>
   <stop stop-color="#c0e6f9" offset="1"/>
  </linearGradient>
  <filter id="filter8193" x="-.04694" y="-.040789" width="1.0939" height="1.0816" color-interpolation-filters="sRGB">
   <feGaussianBlur stdDeviation="1.5687656"/>
  </filter>
  <filter id="filter8197" x="-.12082" y="-.10499" width="1.2416" height="1.21" color-interpolation-filters="sRGB">
   <feGaussianBlur stdDeviation="6.2750313"/>
  </filter>
  <filter id="filter8201" x="-.37617" y="-.32688" width="1.7524" height="1.6538" color-interpolation-filters="sRGB">
   <feGaussianBlur stdDeviation="25.100128"/>
  </filter>
 </defs>
 <g transform="rotate(163.19 427.3 115.7)" fill="none" stroke-linecap="round" stroke-linejoin="round">
  <path d="m744.1 254.87-186.72-106.36h1e-3v-1e-3l185.48-108.52v1e-3z" filter="url(#filter8201)" stroke="url(#linearGradient1865)" stroke-width="20"/>
  <path d="m744.1 254.87-186.72-106.36 1e-3 -1e-3c0.24-0.141 185.24-108.38 185.48-108.52h1e-3v1e-3c1e-3 0.21 1.24 214.88 1.24 214.88" filter="url(#filter8197)" stroke="url(#linearGradient1403)" stroke-width="15px"/>
  <path d="m744.1 254.87-186.72-106.36 1e-3 -1e-3c0.481-0.281 185.36-108.45 185.48-108.52l1e-3 1e-3v2e-3c2e-3 0.418 1.24 214.88 1.24 214.88" filter="url(#filter8193)" stroke="url(#linearGradient5761)" stroke-width="10"/>
  <path d="m744.09 254.87-186.72-106.37 185.48-108.51v0.0017z" stroke="#fff" stroke-width="5"/>
 </g>
</svg>
