<svg width="350" height="350" version="1.1" viewBox="0 0 92.604 92.604" xmlns="http://www.w3.org/2000/svg" xmlns:xlink="http://www.w3.org/1999/xlink">
 <defs>
  <radialGradient id="radialGradient7028" cx="132.29" cy="164.71" r="132.29" gradientTransform="matrix(.35 0 0 .35 -6.6957e-7 21.071)" gradientUnits="userSpaceOnUse">
   <stop stop-color="#fff" offset="0"/>
   <stop stop-color="#fff" stop-opacity="0" offset="1"/>
  </radialGradient>
 </defs>
 <g transform="translate(0 -32.417)">
  <g>
   <path d="m45.898 32.418a46.302 46.302 0 0 1 0.88893 7.76e-4l-0.48487 46.3z" fill="#f00"/>
   <path d="m46.706 32.418a46.302 46.302 0 0 1 0.88877 0.01629l-1.2928 46.284z" fill="#ff0400"/>
   <path d="m47.514 32.433a46.302 46.302 0 0 1 0.88835 0.0318l-2.1004 46.254z" fill="#ff0900"/>
   <path d="m48.322 32.461a46.302 46.302 0 0 1 0.88766 0.0473l-2.9073 46.211z" fill="#ff0d00"/>
   <path d="m49.129 32.503a46.302 46.302 0 0 1 0.8867 0.06278l-3.7134 46.153z" fill="#f10"/>
   <path d="m49.935 32.559a46.302 46.302 0 0 1 0.88547 0.07825l-4.5183 46.081z" fill="#ff1500"/>
   <path d="m50.74 32.63a46.302 46.302 0 0 1 0.88397 0.09369l-5.3218 45.995z" fill="#ff1a00"/>
   <path d="m51.544 32.714a46.302 46.302 0 0 1 0.8822 0.1091l-6.1237 45.895z" fill="#ff1e00"/>
   <path d="m52.346 32.813a46.302 46.302 0 0 1 0.88016 0.12448l-6.9238 45.781z" fill="#f20"/>
   <path d="m53.146 32.925a46.302 46.302 0 0 1 0.87786 0.13982l-7.7217 45.654z" fill="#ff2600"/>
   <path d="m53.944 33.052a46.302 46.302 0 0 1 0.87528 0.15512l-8.5173 45.512z" fill="#ff2b00"/>
   <path d="m54.74 33.192a46.302 46.302 0 0 1 0.87244 0.17038l-9.3103 45.356z" fill="#ff2f00"/>
   <path d="m55.533 33.346a46.302 46.302 0 0 1 0.86934 0.18558l-10.1 45.187z" fill="#f30"/>
   <path d="m56.324 33.514a46.302 46.302 0 0 1 0.86597 0.20072l-10.888 45.004z" fill="#ff3700"/>
   <path d="m57.111 33.696a46.302 46.302 0 0 1 0.86233 0.2158l-11.671 44.807z" fill="#ff3c00"/>
   <path d="m57.895 33.891a46.302 46.302 0 0 1 0.85843 0.23082l-12.452 44.596z" fill="#ff4000"/>
  </g>
  <path d="m58.676 34.101a46.302 46.302 0 0 1 0.85427 0.24576l-13.228 44.372z" fill-opacity="0"/>
  <g>
   <path d="m58.676 34.101a46.302 46.302 0 0 1 0.85427 0.24576l-13.228 44.372z" fill="#f40"/>
   <path d="m59.453 34.323a46.302 46.302 0 0 1 0.84985 0.26064l-14 44.135z" fill="#ff4800"/>
   <path d="m60.225 34.56a46.302 46.302 0 0 1 0.84517 0.27543l-14.768 43.884z" fill="#ff4d00"/>
   <path d="m60.994 34.809a46.302 46.302 0 0 1 0.84024 0.29014l-15.532 43.619z" fill="#ff5100"/>
   <path d="m61.758 35.072a46.302 46.302 0 0 1 0.83505 0.30476l-16.291 43.342z" fill="#f50"/>
   <path d="m62.517 35.349a46.302 46.302 0 0 1 0.8296 0.31928l-17.045 43.051z" fill="#ff5900"/>
   <path d="m63.272 35.638a46.302 46.302 0 0 1 0.8239 0.33372l-17.794 42.747z" fill="#ff5e00"/>
   <path d="m64.021 35.941a46.302 46.302 0 0 1 0.81795 0.34804l-18.537 42.43z" fill="#ff6200"/>
   <path d="m64.765 36.257a46.302 46.302 0 0 1 0.81175 0.36227l-19.275 42.1z" fill="#f60"/>
   <path d="m65.503 36.586a46.302 46.302 0 0 1 0.80531 0.37638l-20.006 41.757z" fill="#ff6a00"/>
   <path d="m66.236 36.927a46.302 46.302 0 0 1 0.79862 0.39038l-20.732 41.401z" fill="#ff6f00"/>
   <path d="m66.962 37.281a46.302 46.302 0 0 1 0.79169 0.40426l-21.452 41.033z" fill="#ff7300"/>
   <path d="m67.682 37.648a46.302 46.302 0 0 1 0.78451 0.41801l-22.164 40.652z" fill="#f70"/>
   <path d="m68.396 38.028a46.302 46.302 0 0 1 0.77709 0.43164l-22.871 40.259z" fill="#ff7b00"/>
   <path d="m69.102 38.419a46.302 46.302 0 0 1 0.76944 0.44513l-23.57 39.854z" fill="#ff8000"/>
   <path d="m69.802 38.824a46.302 46.302 0 0 1 0.76156 0.45849l-24.262 39.437z" fill="#ff8400"/>
   <path d="m70.495 39.24a46.302 46.302 0 0 1 0.75344 0.47172l-24.946 39.007z" fill="#f80"/>
   <path d="m71.18 39.668a46.302 46.302 0 0 1 0.74509 0.48479l-25.623 38.566z" fill="#ff8c00"/>
   <path d="m71.858 40.108a46.302 46.302 0 0 1 0.73652 0.49772l-26.292 38.113z" fill="#ff9100"/>
   <path d="m72.528 40.56a46.302 46.302 0 0 1 0.72772 0.5105l-26.954 37.648z" fill="#ff9500"/>
   <path d="m73.19 41.023a46.302 46.302 0 0 1 0.7187 0.52312l-27.606 37.172z" fill="#f90"/>
   <path d="m73.844 41.498a46.302 46.302 0 0 1 0.70946 0.53559l-28.251 36.685z" fill="#ff9d00"/>
   <path d="m74.489 41.985a46.302 46.302 0 0 1 0.7 0.54789l-28.887 36.186z" fill="#ffa200"/>
   <path d="m75.126 42.482a46.302 46.302 0 0 1 0.69034 0.56002l-29.514 35.676z" fill="#ffa600"/>
   <path d="m75.754 42.991a46.302 46.302 0 0 1 0.68046 0.57198l-30.132 35.156z" fill="#fa0"/>
   <path d="m76.373 43.51a46.302 46.302 0 0 1 0.67037 0.58377l-30.741 34.625z" fill="#ffae00"/>
   <path d="m76.983 44.041a46.302 46.302 0 0 1 0.66008 0.59538l-31.341 34.083z" fill="#ffb300"/>
   <path d="m77.583 44.581a46.302 46.302 0 0 1 0.64959 0.60681l-31.931 33.531z" fill="#ffb700"/>
   <path d="m78.174 45.132a46.302 46.302 0 0 1 0.6389 0.61806l-32.511 32.968z" fill="#fb0"/>
   <path d="m78.174 45.132a46.302 46.302 0 0 1 0.6389 0.61806l-32.511 32.968z" fill="#fb0"/>
   <path d="m78.756 45.694a46.302 46.302 0 0 1 0.62801 0.62911l-33.082 32.396z" fill="#ffbf00"/>
   <path d="m79.327 46.265a46.302 46.302 0 0 1 0.61694 0.63998l-33.642 31.814z" fill="#ffc400"/>
   <path d="m79.888 46.846a46.302 46.302 0 0 1 0.60568 0.65064l-34.192 31.222z" fill="#ffc800"/>
   <path d="m80.44 47.437a46.302 46.302 0 0 1 0.59423 0.66112l-34.732 30.62z" fill="#fc0"/>
   <path d="m80.98 48.038a46.302 46.302 0 0 1 0.5826 0.67139l-35.261 30.009z" fill="#ffd000"/>
   <path d="m81.51 48.648a46.302 46.302 0 0 1 0.57079 0.68145l-35.779 29.389z" fill="#ffd500"/>
   <path d="m82.03 49.267a46.302 46.302 0 0 1 0.55881 0.69131l-36.287 28.76z" fill="#ffd900"/>
   <path d="m82.538 49.895a46.302 46.302 0 0 1 0.54667 0.70096l-36.783 28.123z" fill="#fd0"/>
   <path d="m83.036 50.532a46.302 46.302 0 0 1 0.53435 0.7104l-37.268 27.477z" fill="#ffe100"/>
   <path d="m83.522 51.177a46.302 46.302 0 0 1 0.52187 0.71961l-37.742 26.822z" fill="#ffe600"/>
   <path d="m83.997 51.831a46.302 46.302 0 0 1 0.50923 0.72861l-38.204 26.159z" fill="#ffea00"/>
   <path d="m84.461 52.493a46.302 46.302 0 0 1 0.49644 0.73738l-38.655 25.488z" fill="#fe0"/>
   <path d="m84.913 53.163a46.302 46.302 0 0 1 0.48349 0.74594l-39.094 24.81z" fill="#fff200"/>
   <path d="m85.353 53.841a46.302 46.302 0 0 1 0.4704 0.75426l-39.521 24.124z" fill="#fff700"/>
   <path d="m85.781 54.526a46.302 46.302 0 0 1 0.45716 0.76235l-39.936 23.43z" fill="#fffb00"/>
   <path d="m86.197 55.219a46.302 46.302 0 0 1 0.44379 0.77022l-40.339 22.73z" fill="#ff0"/>
   <path d="m86.601 55.918a46.302 46.302 0 0 1 0.43028 0.77784l-40.73 22.022z" fill="#fbff00"/>
   <path d="m86.993 56.625a46.302 46.302 0 0 1 0.41664 0.78524l-41.108 21.308z" fill="#f7ff00"/>
   <path d="m87.373 57.339a46.302 46.302 0 0 1 0.40287 0.79239l-41.473 20.588z" fill="#f2ff00"/>
   <path d="m87.739 58.059a46.302 46.302 0 0 1 0.38898 0.7993l-41.826 19.861z" fill="#ef0"/>
   <path d="m88.094 58.785a46.302 46.302 0 0 1 0.37497 0.80597l-42.167 19.128z" fill="#eaff00"/>
   <path d="m88.435 59.518a46.302 46.302 0 0 1 0.36085 0.81239l-42.494 18.389z" fill="#e6ff00"/>
   <path d="m88.764 60.256a46.302 46.302 0 0 1 0.34662 0.81856l-42.808 17.644z" fill="#e1ff00"/>
   <path d="m89.08 61a46.302 46.302 0 0 1 0.33228 0.82448l-43.11 16.895z" fill="#df0"/>
   <path d="m89.382 61.749a46.302 46.302 0 0 1 0.31784 0.83016l-43.398 16.14z" fill="#d9ff00"/>
   <path d="m89.672 62.503a46.302 46.302 0 0 1 0.3033 0.83558l-43.673 15.38z" fill="#d5ff00"/>
   <path d="m89.948 63.263a46.302 46.302 0 0 1 0.28867 0.84074l-43.935 14.615z" fill="#d0ff00"/>
   <path d="m90.211 64.027a46.302 46.302 0 0 1 0.27395 0.84565l-44.183 13.846z" fill="#cf0"/>
   <path d="m90.461 64.795a46.302 46.302 0 0 1 0.25915 0.85031l-44.418 13.073z" fill="#c8ff00"/>
   <path d="m90.697 65.568a46.302 46.302 0 0 1 0.24428 0.8547l-44.64 12.296z" fill="#c4ff00"/>
   <path d="m90.92 66.345a46.302 46.302 0 0 1 0.22932 0.85883l-44.847 11.515z" fill="#bfff00"/>
   <path d="m91.129 67.126a46.302 46.302 0 0 1 0.2143 0.8627l-45.042 10.73z" fill="#bf0"/>
   <path d="m91.325 67.91a46.302 46.302 0 0 1 0.19921 0.86631l-45.222 9.9427z" fill="#b7ff00"/>
   <path d="m91.507 68.697a46.302 46.302 0 0 1 0.18406 0.86966l-45.389 9.1519z" fill="#b3ff00"/>
   <path d="m91.675 69.488a46.302 46.302 0 0 1 0.16885 0.87274l-45.541 8.3584z" fill="#aeff00"/>
   <path d="m91.829 70.281a46.302 46.302 0 0 1 0.1536 0.87556l-45.68 7.5623z" fill="#af0"/>
   <path d="m91.969 71.077a46.302 46.302 0 0 1 0.13829 0.8781l-45.805 6.7639z" fill="#a6ff00"/>
   <path d="m92.096 71.875a46.302 46.302 0 0 1 0.12294 0.88038l-45.916 5.9635z" fill="#a2ff00"/>
   <path d="m92.208 72.675a46.302 46.302 0 0 1 0.10756 0.88239l-46.014 5.1612z" fill="#9eff00"/>
   <path d="m92.307 73.477a46.302 46.302 0 0 1 0.09215 0.88413l-46.097 4.3574z" fill="#9f0"/>
   <path d="m92.391 74.281a46.302 46.302 0 0 1 0.0767 0.88561l-46.166 3.5523z" fill="#95ff00"/>
   <path d="m92.461 75.086a46.302 46.302 0 0 1 0.06123 0.88681l-46.221 2.746z" fill="#91ff00"/>
   <path d="m92.518 75.892a46.302 46.302 0 0 1 0.04575 0.88774l-46.261 1.9389z" fill="#8cff00"/>
   <path d="m92.56 76.699a46.302 46.302 0 0 1 0.03025 0.88841l-46.288 1.1313z" fill="#8f0"/>
   <path d="m92.588 77.507a46.302 46.302 0 0 1 0.01474 0.8888l-46.301 0.32325z" fill="#84ff00"/>
   <path d="m92.602 78.315a46.302 46.302 0 0 1-7.76e-4 0.88892l-46.3-0.48487z" fill="#80ff00"/>
   <path d="m92.602 79.123a46.302 46.302 0 0 1-0.01629 0.88877l-46.284-1.2928z" fill="#7bff00"/>
   <path d="m92.588 79.931a46.302 46.302 0 0 1-0.0318 0.88835l-46.254-2.1004z" fill="#7f0"/>
   <path d="m92.56 80.738a46.302 46.302 0 0 1-0.0473 0.88766l-46.211-2.9073z" fill="#73ff00"/>
   <path d="m92.518 81.545a46.302 46.302 0 0 1-0.06278 0.8867l-46.153-3.7134z" fill="#6fff00"/>
   <path d="m92.461 82.352a46.302 46.302 0 0 1-0.07825 0.88547l-46.081-4.5183z" fill="#6aff00"/>
   <path d="m92.391 83.157a46.302 46.302 0 0 1-0.09369 0.88397l-45.995-5.3218z" fill="#6f0"/>
   <path d="m92.307 83.96a46.302 46.302 0 0 1-0.1091 0.8822l-45.895-6.1237z" fill="#62ff00"/>
   <path d="m92.208 84.762a46.302 46.302 0 0 1-0.12448 0.88016l-45.781-6.9238z" fill="#5eff00"/>
   <path d="m92.096 85.563a46.302 46.302 0 0 1-0.13982 0.87786l-45.654-7.7217z" fill="#59ff00"/>
   <path d="m91.969 86.361a46.302 46.302 0 0 1-0.15512 0.87528l-45.512-8.5173z" fill="#5f0"/>
   <path d="m91.829 87.157a46.302 46.302 0 0 1-0.17038 0.87244l-45.356-9.3103z" fill="#51ff00"/>
   <path d="m91.675 87.95a46.302 46.302 0 0 1-0.18558 0.86934l-45.187-10.1z" fill="#4dff00"/>
   <path d="m91.507 88.74a46.302 46.302 0 0 1-0.20072 0.86596l-45.004-10.888z" fill="#48ff00"/>
   <path d="m91.325 89.528a46.302 46.302 0 0 1-0.2158 0.86233l-44.807-11.671z" fill="#4f0"/>
   <path d="m91.129 90.312a46.302 46.302 0 0 1-0.23082 0.85843l-44.596-12.452z" fill="#40ff00"/>
   <path d="m90.92 91.092a46.302 46.302 0 0 1-0.24577 0.85427l-44.372-13.228z" fill="#3cff00"/>
   <path d="m90.697 91.869a46.302 46.302 0 0 1-0.26064 0.84985l-44.135-14z" fill="#37ff00"/>
   <path d="m90.461 92.642a46.302 46.302 0 0 1-0.27543 0.84518l-43.884-14.768z" fill="#3f0"/>
   <path d="m90.211 93.411a46.302 46.302 0 0 1-0.29014 0.84024l-43.619-15.532z" fill="#2fff00"/>
   <path d="m89.948 94.175a46.302 46.302 0 0 1-0.30476 0.83505l-43.342-16.291z" fill="#2bff00"/>
   <path d="m89.672 94.934a46.302 46.302 0 0 1-0.31929 0.8296l-43.051-17.045z" fill="#26ff00"/>
   <path d="m89.382 95.688a46.302 46.302 0 0 1-0.33372 0.8239l-42.747-17.794z" fill="#2f0"/>
   <path d="m89.08 96.438a46.302 46.302 0 0 1-0.34804 0.81795l-42.43-18.537z" fill="#1eff00"/>
   <path d="m88.764 97.182a46.302 46.302 0 0 1-0.36227 0.81176l-42.1-19.275z" fill="#1aff00"/>
   <path d="m88.435 97.92a46.302 46.302 0 0 1-0.37638 0.80531l-41.757-20.006z" fill="#15ff00"/>
   <path d="m88.094 98.652a46.302 46.302 0 0 1-0.39038 0.79862l-41.401-20.732z" fill="#1f0"/>
   <path d="m87.739 99.379a46.302 46.302 0 0 1-0.40425 0.79168l-41.033-21.452z" fill="#0dff00"/>
   <path d="m87.373 100.1a46.302 46.302 0 0 1-0.41801 0.78451l-40.652-22.164z" fill="#09ff00"/>
   <path d="m86.993 100.81a46.302 46.302 0 0 1-0.43164 0.77709l-40.259-22.871z" fill="#04ff00"/>
   <path d="m86.601 101.52a46.302 46.302 0 0 1-0.44513 0.76944l-39.854-23.57z" fill="#0f0"/>
   <path d="m86.197 102.22a46.302 46.302 0 0 1-0.45849 0.76156l-39.437-24.262z" fill="#00ff04"/>
   <path d="m85.781 102.91a46.302 46.302 0 0 1-0.47172 0.75344l-39.007-24.946z" fill="#00ff09"/>
   <path d="m85.353 103.6a46.302 46.302 0 0 1-0.48479 0.74509l-38.566-25.623z" fill="#00ff0d"/>
   <path d="m84.913 104.27a46.302 46.302 0 0 1-0.49772 0.73651l-38.113-26.292z" fill="#0f1"/>
   <path d="m84.461 104.94a46.302 46.302 0 0 1-0.5105 0.72771l-37.648-26.954z" fill="#00ff15"/>
   <path d="m83.997 105.61a46.302 46.302 0 0 1-0.52312 0.7187l-37.172-27.606z" fill="#00ff1a"/>
   <path d="m83.522 106.26a46.302 46.302 0 0 1-0.53559 0.70946l-36.685-28.251z" fill="#00ff1e"/>
   <path d="m83.036 106.91a46.302 46.302 0 0 1-0.54789 0.7l-36.186-28.887z" fill="#0f2"/>
   <path d="m82.538 107.54a46.302 46.302 0 0 1-0.56002 0.69033l-35.676-29.514z" fill="#00ff26"/>
   <path d="m82.03 108.17a46.302 46.302 0 0 1-0.57198 0.68046l-35.156-30.132z" fill="#00ff2b"/>
   <path d="m81.51 108.79a46.302 46.302 0 0 1-0.58377 0.67037l-34.625-30.741z" fill="#00ff2f"/>
   <path d="m80.98 109.4a46.302 46.302 0 0 1-0.59538 0.66008l-34.083-31.341z" fill="#0f3"/>
   <path d="m80.44 110a46.302 46.302 0 0 1-0.60681 0.64959l-33.531-31.931z" fill="#00ff37"/>
   <path d="m79.888 110.59a46.302 46.302 0 0 1-0.61806 0.6389l-32.968-32.511z" fill="#00ff3c"/>
   <path d="m79.327 111.17a46.302 46.302 0 0 1-0.62911 0.62801l-32.396-33.082z" fill="#00ff40"/>
   <path d="m78.756 111.74a46.302 46.302 0 0 1-0.63998 0.61694l-31.814-33.642z" fill="#0f4"/>
   <path d="m78.174 112.31a46.302 46.302 0 0 1-0.65064 0.60568l-31.222-34.192z" fill="#00ff48"/>
   <path d="m77.583 112.86a46.302 46.302 0 0 1-0.66112 0.59423l-30.62-34.732z" fill="#00ff4d"/>
   <path d="m76.983 113.4a46.302 46.302 0 0 1-0.67139 0.5826l-30.009-35.261z" fill="#00ff51"/>
   <path d="m76.373 113.93a46.302 46.302 0 0 1-0.68145 0.57079l-29.389-35.779z" fill="#0f5"/>
   <path d="m75.754 114.45a46.302 46.302 0 0 1-0.69131 0.55882l-28.76-36.287z" fill="#00ff59"/>
   <path d="m75.126 114.96a46.302 46.302 0 0 1-0.70096 0.54667l-28.123-36.783z" fill="#00ff5e"/>
   <path d="m74.489 115.45a46.302 46.302 0 0 1-0.71039 0.53435l-27.477-37.268z" fill="#00ff62"/>
   <path d="m73.844 115.94a46.302 46.302 0 0 1-0.71961 0.52187l-26.822-37.742z" fill="#0f6"/>
   <path d="m73.19 116.41a46.302 46.302 0 0 1-0.72861 0.50923l-26.159-38.204z" fill="#00ff6a"/>
   <path d="m72.528 116.88a46.302 46.302 0 0 1-0.73738 0.49643l-25.488-38.655z" fill="#00ff6f"/>
   <path d="m71.858 117.33a46.302 46.302 0 0 1-0.74593 0.48349l-24.81-39.094z" fill="#00ff73"/>
   <path d="m71.18 117.77a46.302 46.302 0 0 1-0.75426 0.4704l-24.124-39.521z" fill="#0f7"/>
   <path d="m70.495 118.2a46.302 46.302 0 0 1-0.76235 0.45717l-23.43-39.936z" fill="#00ff7b"/>
   <path d="m69.802 118.61a46.302 46.302 0 0 1-0.77022 0.44379l-22.73-40.339z" fill="#00ff80"/>
   <path d="m69.102 119.02a46.302 46.302 0 0 1-0.77784 0.43028l-22.022-40.73z" fill="#00ff84"/>
   <path d="m68.396 119.41a46.302 46.302 0 0 1-0.78524 0.41664l-21.308-41.108z" fill="#0f8"/>
   <path d="m67.682 119.79a46.302 46.302 0 0 1-0.79239 0.40287l-20.588-41.473z" fill="#00ff8c"/>
   <path d="m66.962 120.16a46.302 46.302 0 0 1-0.7993 0.38898l-19.861-41.826z" fill="#00ff91"/>
   <path d="m66.236 120.51a46.302 46.302 0 0 1-0.80596 0.37497l-19.128-42.167z" fill="#00ff95"/>
   <path d="m65.503 120.85a46.302 46.302 0 0 1-0.81238 0.36085l-18.389-42.494z" fill="#0f9"/>
   <path d="m64.765 121.18a46.302 46.302 0 0 1-0.81856 0.34661l-17.644-42.808z" fill="#00ff9d"/>
   <path d="m64.021 121.5a46.302 46.302 0 0 1-0.82449 0.33228l-16.895-43.11z" fill="#00ffa2"/>
   <path d="m63.272 121.8a46.302 46.302 0 0 1-0.83016 0.31784l-16.14-43.398z" fill="#00ffa6"/>
   <path d="m62.517 122.09a46.302 46.302 0 0 1-0.83558 0.3033l-15.38-43.673z" fill="#0fa"/>
   <path d="m61.758 122.36a46.302 46.302 0 0 1-0.84074 0.28867l-14.615-43.935z" fill="#00ffae"/>
   <path d="m60.994 122.63a46.302 46.302 0 0 1-0.84565 0.27395l-13.846-44.183z" fill="#00ffb3"/>
   <path d="m60.225 122.88a46.302 46.302 0 0 1-0.85031 0.25915l-13.073-44.418z" fill="#00ffb7"/>
   <path d="m59.453 123.11a46.302 46.302 0 0 1-0.8547 0.24427l-12.296-44.64z" fill="#0fb"/>
   <path d="m58.676 123.34a46.302 46.302 0 0 1-0.85883 0.22932l-11.515-44.847z" fill="#00ffbf"/>
   <path d="m57.895 123.55a46.302 46.302 0 0 1-0.8627 0.2143l-10.73-45.042z" fill="#00ffc4"/>
   <path d="m57.111 123.74a46.302 46.302 0 0 1-0.86631 0.19921l-9.9427-45.222z" fill="#00ffc8"/>
   <path d="m56.324 123.92a46.302 46.302 0 0 1-0.86966 0.18405l-9.1519-45.389z" fill="#0fc"/>
   <path d="m55.533 124.09a46.302 46.302 0 0 1-0.87274 0.16885l-8.3584-45.541z" fill="#00ffd0"/>
   <path d="m54.74 124.25a46.302 46.302 0 0 1-0.87555 0.15359l-7.5623-45.68z" fill="#00ffd5"/>
   <path d="m53.944 124.39a46.302 46.302 0 0 1-0.8781 0.1383l-6.7639-45.805z" fill="#00ffd9"/>
   <path d="m53.146 124.51a46.302 46.302 0 0 1-0.88038 0.12295l-5.9635-45.916z" fill="#0fd"/>
   <path d="m52.346 124.62a46.302 46.302 0 0 1-0.88239 0.10756l-5.1612-46.014z" fill="#00ffe1"/>
   <path d="m51.544 124.72a46.302 46.302 0 0 1-0.88413 0.0922l-4.3574-46.097z" fill="#00ffe6"/>
   <path d="m50.74 124.81a46.302 46.302 0 0 1-0.88561 0.0767l-3.5523-46.166z" fill="#00ffea"/>
   <path d="m49.935 124.88a46.302 46.302 0 0 1-0.88681 0.0612l-2.746-46.221z" fill="#0fe"/>
   <path d="m49.129 124.93a46.302 46.302 0 0 1-0.88774 0.0457l-1.9389-46.261z" fill="#00fff2"/>
   <path d="m48.322 124.98a46.302 46.302 0 0 1-0.88841 0.0302l-1.1313-46.288z" fill="#00fff7"/>
   <path d="m47.514 125a46.302 46.302 0 0 1-0.8888 0.0147l-0.32325-46.301z" fill="#00fffb"/>
   <path d="m46.706 125.02a46.302 46.302 0 0 1-0.88892-7.8e-4l0.48486-46.3z" fill="#0ff"/>
   <path d="m45.898 125.02a46.302 46.302 0 0 1-0.88877-0.0163l1.2928-46.284z" fill="#00fbff"/>
   <path d="m45.09 125a46.302 46.302 0 0 1-0.88835-0.0318l2.1004-46.254z" fill="#00f7ff"/>
   <path d="m44.282 124.98a46.302 46.302 0 0 1-0.88766-0.0473l2.9073-46.211z" fill="#00f2ff"/>
   <path d="m43.475 124.93a46.302 46.302 0 0 1-0.8867-0.0628l3.7134-46.153z" fill="#0ef"/>
   <path d="m42.669 124.88a46.302 46.302 0 0 1-0.88548-0.0782l4.5183-46.081z" fill="#00eaff"/>
   <path d="m41.864 124.81a46.302 46.302 0 0 1-0.88398-0.0937l5.3218-45.995z" fill="#00e6ff"/>
   <path d="m41.061 124.72a46.302 46.302 0 0 1-0.8822-0.1091l6.1237-45.895z" fill="#00e1ff"/>
   <path d="m40.258 124.62a46.302 46.302 0 0 1-0.88016-0.12448l6.9238-45.781z" fill="#0df"/>
   <path d="m39.458 124.51a46.302 46.302 0 0 1-0.87786-0.13982l7.7217-45.654z" fill="#00d9ff"/>
   <path d="m38.66 124.39a46.302 46.302 0 0 1-0.87528-0.15512l8.5173-45.512z" fill="#00d5ff"/>
   <path d="m37.864 124.25a46.302 46.302 0 0 1-0.87244-0.17038l9.3103-45.356z" fill="#00d0ff"/>
   <path d="m37.071 124.09a46.302 46.302 0 0 1-0.86934-0.18557l10.1-45.187z" fill="#0cf"/>
   <path d="m36.28 123.92a46.302 46.302 0 0 1-0.86596-0.20071l10.888-45.004z" fill="#00c8ff"/>
   <path d="m35.493 123.74a46.302 46.302 0 0 1-0.86233-0.2158l11.671-44.807z" fill="#00c4ff"/>
   <path d="m34.709 123.55a46.302 46.302 0 0 1-0.85843-0.23082l12.452-44.596z" fill="#00bfff"/>
   <path d="m33.928 123.34a46.302 46.302 0 0 1-0.85427-0.24576l13.228-44.372z" fill="#0bf"/>
   <path d="m33.152 123.11a46.302 46.302 0 0 1-0.84985-0.26064l14-44.135z" fill="#00b7ff"/>
   <path d="m32.379 122.88a46.302 46.302 0 0 1-0.84518-0.27543l14.768-43.884z" fill="#00b3ff"/>
   <path d="m31.61 122.63a46.302 46.302 0 0 1-0.84024-0.29014l15.532-43.619z" fill="#00aeff"/>
   <path d="m30.846 122.36a46.302 46.302 0 0 1-0.83505-0.30476l16.291-43.342z" fill="#0af"/>
   <path d="m30.087 122.09a46.302 46.302 0 0 1-0.8296-0.31928l17.045-43.051z" fill="#00a6ff"/>
   <path d="m29.332 121.8a46.302 46.302 0 0 1-0.8239-0.33372l17.794-42.747z" fill="#00a2ff"/>
   <path d="m28.583 121.5a46.302 46.302 0 0 1-0.81795-0.34804l18.537-42.43z" fill="#009dff"/>
   <path d="m27.839 121.18a46.302 46.302 0 0 1-0.81175-0.36227l19.275-42.1z" fill="#09f"/>
   <path d="m27.101 120.85a46.302 46.302 0 0 1-0.80531-0.37638l20.006-41.757z" fill="#0095ff"/>
   <path d="m26.369 120.51a46.302 46.302 0 0 1-0.79862-0.39037l20.732-41.401z" fill="#0091ff"/>
   <path d="m25.642 120.16a46.302 46.302 0 0 1-0.79168-0.40425l21.452-41.033z" fill="#008cff"/>
   <path d="m24.922 119.79a46.302 46.302 0 0 1-0.78451-0.418l22.164-40.652z" fill="#08f"/>
   <path d="m24.209 119.41a46.302 46.302 0 0 1-0.77709-0.43164l22.871-40.259z" fill="#0084ff"/>
   <path d="m23.502 119.02a46.302 46.302 0 0 1-0.76944-0.44514l23.57-39.854z" fill="#0080ff"/>
   <path d="m22.802 118.61a46.302 46.302 0 0 1-0.76156-0.45849l24.262-39.437z" fill="#007bff"/>
   <path d="m22.109 118.2a46.302 46.302 0 0 1-0.75344-0.47171l24.946-39.007z" fill="#07f"/>
   <path d="m21.424 117.77a46.302 46.302 0 0 1-0.74509-0.4848l25.623-38.566z" fill="#0072ff"/>
   <path d="m20.746 117.33a46.302 46.302 0 0 1-0.73652-0.49772l26.292-38.113z" fill="#006fff"/>
   <path d="m20.076 116.88a46.302 46.302 0 0 1-0.72772-0.5105l26.954-37.648z" fill="#006aff"/>
   <path d="m19.414 116.41a46.302 46.302 0 0 1-0.7187-0.52312l27.606-37.172z" fill="#06f"/>
   <path d="m18.761 115.94a46.302 46.302 0 0 1-0.70946-0.53558l28.251-36.685z" fill="#0062ff"/>
   <path d="m18.115 115.45a46.302 46.302 0 0 1-0.7-0.54789l28.887-36.186z" fill="#005eff"/>
   <path d="m17.478 114.96a46.302 46.302 0 0 1-0.69033-0.56002l29.514-35.676z" fill="#0059ff"/>
   <path d="m16.85 114.45a46.302 46.302 0 0 1-0.68045-0.57198l30.132-35.156z" fill="#05f"/>
   <path d="m16.231 113.93a46.302 46.302 0 0 1-0.67037-0.58377l30.741-34.625z" fill="#0051ff"/>
   <path d="m15.621 113.4a46.302 46.302 0 0 1-0.66008-0.59539l31.341-34.083z" fill="#004dff"/>
   <path d="m15.021 112.86a46.302 46.302 0 0 1-0.64959-0.60681l31.931-33.531z" fill="#0048ff"/>
   <path d="m14.43 112.31a46.302 46.302 0 0 1-0.6389-0.61806l32.511-32.968z" fill="#04f"/>
   <path d="m13.849 111.74a46.302 46.302 0 0 1-0.62802-0.62911l33.082-32.396z" fill="#0040ff"/>
   <path d="m13.277 111.17a46.302 46.302 0 0 1-0.61694-0.63998l33.642-31.814z" fill="#003cff"/>
   <path d="m12.716 110.59a46.302 46.302 0 0 1-0.60568-0.65065l34.192-31.222z" fill="#0037ff"/>
   <path d="m12.165 110a46.302 46.302 0 0 1-0.59423-0.66112l34.732-30.62z" fill="#03f"/>
   <path d="m11.624 109.4a46.302 46.302 0 0 1-0.5826-0.67139l35.261-30.009z" fill="#002fff"/>
   <path d="m11.094 108.79a46.302 46.302 0 0 1-0.57079-0.68145l35.779-29.389z" fill="#002bff"/>
   <path d="m10.574 108.17a46.302 46.302 0 0 1-0.55881-0.69131l36.287-28.76z" fill="#0026ff"/>
   <path d="m10.066 107.54a46.302 46.302 0 0 1-0.54666-0.70096l36.783-28.123z" fill="#02f"/>
   <path d="m9.5682 106.91a46.302 46.302 0 0 1-0.53435-0.71039l37.268-27.477z" fill="#001eff"/>
   <path d="m9.0818 106.26a46.302 46.302 0 0 1-0.52187-0.71961l37.742-26.822z" fill="#001aff"/>
   <path d="m8.6068 105.61a46.302 46.302 0 0 1-0.50923-0.7286l38.204-26.159z" fill="#0015ff"/>
   <path d="m8.1433 104.94a46.302 46.302 0 0 1-0.49644-0.73738l38.655-25.488z" fill="#01f"/>
   <path d="m7.6914 104.27a46.302 46.302 0 0 1-0.48349-0.74594l39.094-24.81z" fill="#000dff"/>
   <path d="m7.2513 103.6a46.302 46.302 0 0 1-0.4704-0.75426l39.521-24.124z" fill="#0009ff"/>
   <path d="m6.8231 102.91a46.302 46.302 0 0 1-0.45717-0.76236l39.936-23.43z" fill="#0004ff"/>
   <path d="m6.4069 102.22a46.302 46.302 0 0 1-0.44379-0.77022l40.339-22.73z" fill="#00f"/>
   <path d="m6.0028 101.52a46.302 46.302 0 0 1-0.43028-0.77784l40.73-22.022z" fill="#0400ff"/>
   <path d="m5.611 100.81a46.302 46.302 0 0 1-0.41664-0.78523l41.108-21.308z" fill="#0900ff"/>
   <path d="m5.2316 100.1a46.302 46.302 0 0 1-0.40287-0.79239l41.473-20.588z" fill="#0d00ff"/>
   <path d="m4.8648 99.379a46.302 46.302 0 0 1-0.38898-0.7993l41.826-19.861z" fill="#10f"/>
   <path d="m4.5105 98.652a46.302 46.302 0 0 1-0.37497-0.80596l42.167-19.128z" fill="#1500ff"/>
   <path d="m4.169 97.92a46.302 46.302 0 0 1-0.36085-0.81238l42.494-18.389z" fill="#1a00ff"/>
   <path d="m3.8403 97.182a46.302 46.302 0 0 1-0.34662-0.81856l42.808-17.644z" fill="#1e00ff"/>
   <path d="m3.5245 96.438a46.302 46.302 0 0 1-0.33228-0.82448l43.11-16.895z" fill="#20f"/>
   <path d="m3.2218 95.688a46.302 46.302 0 0 1-0.31784-0.83016l43.398-16.14z" fill="#2600ff"/>
   <path d="m2.9322 94.934a46.302 46.302 0 0 1-0.3033-0.83558l43.673-15.38z" fill="#2b00ff"/>
   <path d="m2.6558 94.175a46.302 46.302 0 0 1-0.28867-0.84075l43.935-14.615z" fill="#2f00ff"/>
   <path d="m2.3927 93.411a46.302 46.302 0 0 1-0.27396-0.84566l44.183-13.846z" fill="#30f"/>
   <path d="m2.143 92.642a46.302 46.302 0 0 1-0.25915-0.85031l44.418-13.073z" fill="#3700ff"/>
   <path d="m1.9067 91.869a46.302 46.302 0 0 1-0.24427-0.8547l44.64-12.296z" fill="#3c00ff"/>
   <path d="m1.684 91.092a46.302 46.302 0 0 1-0.22932-0.85883l44.847-11.515z" fill="#4000ff"/>
   <path d="m1.4748 90.312a46.302 46.302 0 0 1-0.2143-0.8627l45.042-10.73z" fill="#40f"/>
   <path d="m1.2793 89.528a46.302 46.302 0 0 1-0.19921-0.86631l45.222-9.9427z" fill="#4800ff"/>
   <path d="m1.0975 88.74a46.302 46.302 0 0 1-0.18406-0.86966l45.389-9.1519z" fill="#4d00ff"/>
   <path d="m0.92953 87.95a46.302 46.302 0 0 1-0.16885-0.87274l45.541-8.3584z" fill="#5100ff"/>
   <path d="m0.77533 87.157a46.302 46.302 0 0 1-0.1536-0.87555l45.68-7.5623z" fill="#50f"/>
   <path d="m0.63501 86.361a46.302 46.302 0 0 1-0.13829-0.8781l45.805-6.7639z" fill="#5900ff"/>
   <path d="m0.50859 85.563a46.302 46.302 0 0 1-0.12295-0.88038l45.916-5.9635z" fill="#5e00ff"/>
   <path d="m0.39612 84.762a46.302 46.302 0 0 1-0.10756-0.88239l46.014-5.1612z" fill="#6200ff"/>
   <path d="m0.29764 83.96a46.302 46.302 0 0 1-0.092146-0.88413l46.097-4.3574z" fill="#60f"/>
   <path d="m0.21317 83.157a46.302 46.302 0 0 1-0.076702-0.88561l46.166-3.5522z" fill="#6a00ff"/>
   <path d="m0.14273 82.352a46.302 46.302 0 0 1-0.061234-0.88681l46.221-2.746z" fill="#6f00ff"/>
   <path d="m0.086363 81.545a46.302 46.302 0 0 1-0.045748-0.88775l46.261-1.9389z" fill="#7300ff"/>
   <path d="m0.044069 80.738a46.302 46.302 0 0 1-0.030248-0.88841l46.288-1.1313z" fill="#70f"/>
   <path d="m0.015867 79.931a46.302 46.302 0 0 1-0.014738-0.8888l46.301-0.32325z" fill="#7b00ff"/>
   <path d="m0.001763 79.123a46.302 46.302 0 0 1 7.7572e-4 -0.88892l46.3 0.48486z" fill="#8000ff"/>
   <path d="m0.001763 78.315a46.302 46.302 0 0 1 0.016289-0.88877l46.284 1.2928z" fill="#8400ff"/>
   <path d="m0.015867 77.507a46.302 46.302 0 0 1 0.031798-0.88835l46.254 2.1004z" fill="#80f"/>
   <path d="m0.044069 76.699a46.302 46.302 0 0 1 0.047297-0.88766l46.211 2.9073z" fill="#8c00ff"/>
   <path d="m0.086363 75.892a46.302 46.302 0 0 1 0.062782-0.8867l46.153 3.7134z" fill="#9100ff"/>
   <path d="m0.14273 75.086a46.302 46.302 0 0 1 0.078247-0.88547l46.081 4.5183z" fill="#9500ff"/>
   <path d="m0.21317 74.281a46.302 46.302 0 0 1 0.093689-0.88397l45.995 5.3218z" fill="#90f"/>
   <path d="m0.29764 73.477a46.302 46.302 0 0 1 0.1091-0.8822l45.895 6.1237z" fill="#9d00ff"/>
   <path d="m0.39612 72.675a46.302 46.302 0 0 1 0.12448-0.88017l45.781 6.9238z" fill="#a200ff"/>
   <path d="m0.50859 71.875a46.302 46.302 0 0 1 0.13982-0.87786l45.654 7.7217z" fill="#a600ff"/>
   <path d="m0.635 71.077a46.302 46.302 0 0 1 0.15512-0.87529l45.512 8.5173z" fill="#a0f"/>
   <path d="m0.77533 70.281a46.302 46.302 0 0 1 0.17038-0.87244l45.356 9.3103z" fill="#ae00ff"/>
   <path d="m0.92953 69.488a46.302 46.302 0 0 1 0.18558-0.86933l45.187 10.1z" fill="#b300ff"/>
   <path d="m1.0975 68.697a46.302 46.302 0 0 1 0.20072-0.86596l45.004 10.888z" fill="#b700ff"/>
   <path d="m1.2793 67.91a46.302 46.302 0 0 1 0.2158-0.86233l44.807 11.671z" fill="#b0f"/>
   <path d="m1.4748 67.126a46.302 46.302 0 0 1 0.23082-0.85843l44.596 12.452z" fill="#bf00ff"/>
   <path d="m1.684 66.345a46.302 46.302 0 0 1 0.24577-0.85427l44.372 13.228z" fill="#c400ff"/>
   <path d="m1.9067 65.568a46.302 46.302 0 0 1 0.26064-0.84985l44.135 14z" fill="#c800ff"/>
   <path d="m2.143 64.795a46.302 46.302 0 0 1 0.27543-0.84517l43.884 14.768z" fill="#c0f"/>
   <path d="m2.3927 64.027a46.302 46.302 0 0 1 0.29014-0.84024l43.619 15.532z" fill="#d000ff"/>
   <path d="m2.6558 63.263a46.302 46.302 0 0 1 0.30476-0.83505l43.342 16.291z" fill="#d500ff"/>
   <path d="m2.9322 62.503a46.302 46.302 0 0 1 0.31929-0.8296l43.051 17.045z" fill="#d900ff"/>
   <path d="m3.2218 61.749a46.302 46.302 0 0 1 0.33372-0.82391l42.747 17.794z" fill="#d0f"/>
   <path d="m3.5245 61a46.302 46.302 0 0 1 0.34805-0.81796l42.43 18.537z" fill="#e100ff"/>
   <path d="m3.8403 60.256a46.302 46.302 0 0 1 0.36227-0.81175l42.1 19.275z" fill="#e600ff"/>
   <path d="m4.169 59.518a46.302 46.302 0 0 1 0.37638-0.80531l41.757 20.006z" fill="#ea00ff"/>
   <path d="m4.5105 58.785a46.302 46.302 0 0 1 0.39037-0.79862l41.401 20.732z" fill="#e0f"/>
   <path d="m4.8648 58.059a46.302 46.302 0 0 1 0.40425-0.79168l41.033 21.452z" fill="#f200ff"/>
   <path d="m5.2316 57.339a46.302 46.302 0 0 1 0.41801-0.78451l40.652 22.164z" fill="#f700ff"/>
   <path d="m5.611 56.625a46.302 46.302 0 0 1 0.43164-0.77709l40.259 22.871z" fill="#fb00ff"/>
   <path d="m6.0028 55.918a46.302 46.302 0 0 1 0.44513-0.76944l39.854 23.57z" fill="#f0f"/>
   <path d="m6.4069 55.219a46.302 46.302 0 0 1 0.45849-0.76155l39.437 24.262z" fill="#ff00fb"/>
   <path d="m6.8231 54.526a46.302 46.302 0 0 1 0.47171-0.75344l39.007 24.946z" fill="#ff00f7"/>
   <path d="m7.2513 53.841a46.302 46.302 0 0 1 0.48479-0.74509l38.566 25.623z" fill="#ff00f2"/>
   <path d="m7.6914 53.163a46.302 46.302 0 0 1 0.49772-0.73652l38.113 26.292z" fill="#f0e"/>
   <path d="m8.1433 52.493a46.302 46.302 0 0 1 0.5105-0.72772l37.648 26.954z" fill="#ff00ea"/>
   <path d="m8.6068 51.831a46.302 46.302 0 0 1 0.52313-0.7187l37.172 27.606z" fill="#ff00e6"/>
   <path d="m9.0818 51.177a46.302 46.302 0 0 1 0.53559-0.70946l36.685 28.251z" fill="#ff00e1"/>
   <path d="m9.5682 50.532a46.302 46.302 0 0 1 0.54789-0.7l36.186 28.887z" fill="#f0d"/>
   <path d="m10.066 49.895a46.302 46.302 0 0 1 0.56002-0.69033l35.676 29.514z" fill="#ff00d9"/>
   <path d="m10.574 49.267a46.302 46.302 0 0 1 0.57198-0.68045l35.156 30.132z" fill="#ff00d5"/>
   <path d="m11.094 48.648a46.302 46.302 0 0 1 0.58377-0.67037l34.625 30.741z" fill="#ff00d0"/>
   <path d="m11.624 48.038a46.302 46.302 0 0 1 0.59538-0.66008l34.083 31.341z" fill="#f0c"/>
   <path d="m12.165 47.437a46.302 46.302 0 0 1 0.60681-0.64959l33.531 31.931z" fill="#ff00c8"/>
   <path d="m12.716 46.846a46.302 46.302 0 0 1 0.61806-0.6389l32.968 32.511z" fill="#ff00c4"/>
   <path d="m13.277 46.265a46.302 46.302 0 0 1 0.62911-0.62801l32.396 33.082z" fill="#ff00bf"/>
   <path d="m13.849 45.694a46.302 46.302 0 0 1 0.63998-0.61694l31.814 33.642z" fill="#f0b"/>
   <path d="m14.43 45.132a46.302 46.302 0 0 1 0.65064-0.60568l31.222 34.192z" fill="#ff00b7"/>
   <path d="m15.021 44.581a46.302 46.302 0 0 1 0.66112-0.59423l30.62 34.732z" fill="#ff00b3"/>
   <path d="m15.621 44.041a46.302 46.302 0 0 1 0.67139-0.5826l30.009 35.261z" fill="#ff00ae"/>
   <path d="m16.231 43.51a46.302 46.302 0 0 1 0.68146-0.5708l29.389 35.779z" fill="#f0a"/>
   <path d="m16.85 42.991a46.302 46.302 0 0 1 0.69131-0.55881l28.76 36.287z" fill="#ff00a6"/>
   <path d="m17.478 42.482a46.302 46.302 0 0 1 0.70096-0.54666l28.123 36.783z" fill="#ff00a2"/>
   <path d="m18.115 41.985a46.302 46.302 0 0 1 0.71039-0.53435l27.477 37.268z" fill="#ff009d"/>
   <path d="m18.761 41.498a46.302 46.302 0 0 1 0.71961-0.52187l26.822 37.742z" fill="#f09"/>
   <path d="m19.414 41.023a46.302 46.302 0 0 1 0.72861-0.50923l26.159 38.204z" fill="#ff0095"/>
   <path d="m20.076 40.56a46.302 46.302 0 0 1 0.73738-0.49644l25.488 38.655z" fill="#ff0091"/>
   <path d="m20.746 40.108a46.302 46.302 0 0 1 0.74594-0.48349l24.81 39.094z" fill="#ff008c"/>
   <path d="m21.424 39.668a46.302 46.302 0 0 1 0.75426-0.4704l24.124 39.521z" fill="#f08"/>
   <path d="m22.109 39.24a46.302 46.302 0 0 1 0.76235-0.45716l23.43 39.936z" fill="#ff0084"/>
   <path d="m22.802 38.824a46.302 46.302 0 0 1 0.77022-0.44379l22.73 40.339z" fill="#ff0080"/>
   <path d="m23.502 38.419a46.302 46.302 0 0 1 0.77784-0.43028l22.022 40.73z" fill="#ff007b"/>
   <path d="m24.209 38.028a46.302 46.302 0 0 1 0.78524-0.41664l21.308 41.108z" fill="#f07"/>
   <path d="m24.922 37.648a46.302 46.302 0 0 1 0.79239-0.40287l20.588 41.473z" fill="#ff0073"/>
   <path d="m25.642 37.281a46.302 46.302 0 0 1 0.7993-0.38898l19.861 41.826z" fill="#ff006f"/>
   <path d="m26.369 36.927a46.302 46.302 0 0 1 0.80596-0.37497l19.128 42.167z" fill="#ff006a"/>
   <path d="m27.101 36.586a46.302 46.302 0 0 1 0.81238-0.36085l18.389 42.494z" fill="#f06"/>
   <path d="m27.839 36.257a46.302 46.302 0 0 1 0.81856-0.34662l17.644 42.808z" fill="#ff0062"/>
   <path d="m28.583 35.941a46.302 46.302 0 0 1 0.82448-0.33228l16.895 43.11z" fill="#ff005e"/>
   <path d="m29.332 35.638a46.302 46.302 0 0 1 0.83016-0.31784l16.14 43.398z" fill="#ff0059"/>
   <path d="m30.087 35.349a46.302 46.302 0 0 1 0.83558-0.3033l15.38 43.673z" fill="#f05"/>
   <path d="m30.846 35.072a46.302 46.302 0 0 1 0.84074-0.28867l14.615 43.935z" fill="#ff0051"/>
   <path d="m31.61 34.809a46.302 46.302 0 0 1 0.84565-0.27395l13.846 44.183z" fill="#ff004d"/>
   <path d="m32.379 34.56a46.302 46.302 0 0 1 0.85031-0.25915l13.073 44.418z" fill="#ff0048"/>
   <path d="m33.152 34.323a46.302 46.302 0 0 1 0.8547-0.24427l12.296 44.64z" fill="#f04"/>
   <path d="m33.928 34.101a46.302 46.302 0 0 1 0.85884-0.22932l11.515 44.847z" fill="#ff0040"/>
   <path d="m34.709 33.891a46.302 46.302 0 0 1 0.86271-0.2143l10.73 45.042z" fill="#ff003c"/>
   <path d="m35.493 33.696a46.302 46.302 0 0 1 0.86632-0.19921l9.9427 45.222z" fill="#ff0037"/>
   <path d="m36.28 33.514a46.302 46.302 0 0 1 0.86966-0.18406l9.1519 45.389z" fill="#f03"/>
   <path d="m37.071 33.346a46.302 46.302 0 0 1 0.87274-0.16885l8.3584 45.541z" fill="#ff002f"/>
   <path d="m37.864 33.192a46.302 46.302 0 0 1 0.87555-0.1536l7.5623 45.68z" fill="#ff002b"/>
   <path d="m38.66 33.052a46.302 46.302 0 0 1 0.8781-0.13829l6.7639 45.805z" fill="#ff0026"/>
   <path d="m39.458 32.925a46.302 46.302 0 0 1 0.88038-0.12294l5.9635 45.916z" fill="#f02"/>
   <path d="m40.258 32.813a46.302 46.302 0 0 1 0.88239-0.10756l5.1612 46.014z" fill="#ff001e"/>
   <path d="m41.061 32.714a46.302 46.302 0 0 1 0.88413-0.09215l4.3574 46.097z" fill="#ff001a"/>
   <path d="m41.864 32.63a46.302 46.302 0 0 1 0.88561-0.0767l3.5522 46.166z" fill="#ff0015"/>
   <path d="m42.669 32.559a46.302 46.302 0 0 1 0.88681-0.06123l2.746 46.221z" fill="#f01"/>
   <path d="m43.475 32.503a46.302 46.302 0 0 1 0.88774-0.04575l1.9389 46.261z" fill="#ff000d"/>
   <path d="m44.282 32.461a46.302 46.302 0 0 1 0.88841-0.03025l1.1313 46.288z" fill="#ff0009"/>
   <path d="m45.09 32.433a46.302 46.302 0 0 1 0.8888-0.01474l0.32324 46.301z" fill="#ff0004"/>
   <circle cx="46.302" cy="78.719" r="46.302" fill="url(#radialGradient7028)"/>
  </g>
 </g>
</svg>
