<svg width="350" height="350" version="1.1" viewBox="0 0 92.604 92.604" xmlns="http://www.w3.org/2000/svg">
 <rect width="92.604" height="92.604" rx="12.888" ry="7.9375" fill="#fff" fill-rule="evenodd" style="paint-order:stroke markers fill"/>
 <path d="m32.343 36.262c0.9785 10.04 5.8844 16.466 13.959 21.602 8.045-5.5371 13.15-11.561 14.03-21.513-9.3681-5.9878-18.706-5.3625-27.99-0.0884z" fill="#e0138c"/>
 <path d="m72.346 56.249c-1.9846-8.8285-1.8368-13.1-12.014-19.899-1.6073 8.7445-3.7341 14.459-13.583 21.08 8.721 5.9204 19.199 2.5177 25.597-1.1807z" fill="#00138c" fill-opacity=".62353"/>
 <path d="m20.392 55.936c5.8982 4.9184 14.953 6.2384 25.91 1.9277-6.9558-5.6147-13.569-9.741-13.959-21.602-9.6442 4.2541-11.694 12.289-11.951 19.674z" fill="#e000ec" fill-opacity=".87451"/>
 <path d="m46.302 11.584c-8.995 5.0526-13.959 12.438-13.959 24.678 8.2079-4.7839 17.368-6.4736 27.99 0.0884 0-14.094-7.1095-21.353-14.03-24.766z" fill="#e01300" fill-opacity=".95294"/>
 <path d="m20.628 56.807c-1.3142 20.4 19.863 29.178 25.674 27.411 8.3902-0.85877 25.075-4.4704 25.963-27.57-9.2692 4.4425-16.047 5.2202-25.963 1.2152-9.2967 3.2736-14.415 3.6534-25.674-1.0566z" fill="#00f" fill-opacity=".54902"/>
 <path d="m72.265 56.648c15.951-11.009 12.834-28.272 9.4262-33.436-4.4889-7.1402-13.842-21.523-34.942-12.08 8.9381 7.0601 13.285 13.818 13.583 25.218 7.0554 6.8824 11.164 8.1173 11.933 20.298z" fill="#0f0" fill-opacity=".13725"/>
 <path d="m45.778 11.009c-18.611-8.4568-34.474 6.8377-34.88 12.898-2.9604 7.8436-5.4588 21.668 9.73 32.9-0.87025-10.242 4.9182-14.274 11.715-20.545 0.23255-9.8535 2.0532-16.8 13.436-25.253z" fill="#f00" fill-opacity=".87843"/>
 <g fill="none" stroke="#333" stroke-linecap="round" stroke-linejoin="round" stroke-width=".89685">
  <ellipse cx="34.396" cy="34.396" rx="26.01" ry="26.01" style="paint-order:stroke markers fill"/>
  <ellipse cx="58.208" cy="34.396" rx="26.01" ry="26.01" style="paint-order:stroke markers fill"/>
  <ellipse cx="46.302" cy="58.208" rx="26.01" ry="26.01" style="paint-order:stroke markers fill"/>
 </g>
</svg>
