<svg version="1.1" xmlns="http://www.w3.org/2000/svg" viewBox="0 0 1406.0881309997387 971.1065575034214" width="1406.0881309997387" height="971.1065575034214" fill="none"><g stroke-linecap="round" transform="translate(10 14.945182255629646) rotate(0 532.5 113)"><path d="M32 0 C384.71 -1.97, 735.15 -1.48, 1033 0 C1052.89 3.19, 1067.56 7.79, 1065 32 C1065.77 69.96, 1063.92 104.19, 1065 194 C1068.09 214.24, 1053.68 229.26, 1033 226 C776.44 221.18, 516.91 221.33, 32 226 C9.92 225.37, -0.79 211.81, 0 194 C1.28 134.51, 0.48 83.06, 0 32 C-1.44 9.51, 8.85 -0.18, 32 0" stroke="none" stroke-width="0" fill="#ffc9c9"></path><path d="M32 0 C304.3 -3.77, 577.56 -2.52, 1033 0 M32 0 C385.03 -2.61, 738.41 -2.34, 1033 0 M1033 0 C1056.07 0.59, 1066.79 12.67, 1065 32 M1033 0 C1055.22 -0.98, 1062.97 9.87, 1065 32 M1065 32 C1062.6 81.27, 1064.77 132.16, 1065 194 M1065 32 C1065.78 88.99, 1066.68 146.54, 1065 194 M1065 194 C1063.37 213.5, 1054.17 226.17, 1033 226 M1065 194 C1067.23 213.73, 1052.96 225.09, 1033 226 M1033 226 C662.35 224.33, 291.18 223.36, 32 226 M1033 226 C641.07 223.62, 249.05 223.46, 32 226 M32 226 C8.76 225.19, -1.73 214, 0 194 M32 226 C11.72 225.42, -0.57 213.15, 0 194 M0 194 C0.13 137.71, -0.79 83.01, 0 32 M0 194 C0.84 131.27, 0.87 68.48, 0 32 M0 32 C-1.18 12.27, 9.47 -1.58, 32 0 M0 32 C-2.18 12.77, 11.11 1.26, 32 0" stroke="#e03131" stroke-width="2" fill="none"></path></g><g stroke-linecap="round"><g transform="translate(223.26249406327406 14.313084461265106) rotate(0 0.2741656559280159 112.3400552465526)"><path d="M-0.55 -0.73 C-0.51 36.62, -0.91 186.78, -0.55 224.17 M1.37 1.5 C1.83 39, 1.57 188.3, 1.58 225.44" stroke="#e03131" stroke-width="2" fill="none"></path></g></g><mask></mask><g stroke-linecap="round"><g transform="translate(436.1652891394714 14.612695046984442) rotate(0 0.2741656559280159 112.3400552465526)"><path d="M0.53 -1.03 C0.71 36.25, 1.91 185.93, 1.74 223.58 M-0.66 1.04 C-0.59 38.44, 1 186.99, 1.42 224.53" stroke="#e03131" stroke-width="2" fill="none"></path></g></g><mask></mask><g stroke-linecap="round"><g transform="translate(649.6337650198077 13.528312064264782) rotate(0 0.2741656559280159 112.3400552465526)"><path d="M0.24 0.72 C0.28 38.36, 1.43 187.46, 1.33 224.9 M-1.1 0.05 C-1.25 37.38, 0.27 185.67, 0.79 222.89" stroke="#e03131" stroke-width="2" fill="none"></path></g></g><mask></mask><g stroke-linecap="round"><g transform="translate(862.7024444735243 14.328349032853595) rotate(0 0.27416565592795905 112.3400552465526)"><path d="M-0.62 0.2 C-0.69 37.84, -0.13 187.45, 0.07 224.94 M1.25 -0.75 C0.95 36.6, -0.89 185.66, -1.13 222.95" stroke="#e03131" stroke-width="2" fill="none"></path></g></g><mask></mask><g stroke-linecap="round" transform="translate(11.79069625851912 253.97382486073096) rotate(0 532.5 113.00000000000003)"><path d="M32 0 C336.93 0.43, 638.25 -0.87, 1033 0 C1051.06 1.55, 1064.79 11.37, 1065 32 C1065.58 82.8, 1062.71 131.92, 1065 194 C1064.89 217.97, 1057.9 222.78, 1033 226 C694.75 221.85, 354.02 222.73, 32 226 C8.8 223.71, -2.52 213.76, 0 194 C-6.35 145.24, -5.69 102.11, 0 32 C-3.47 11.68, 13.49 -2.71, 32 0" stroke="none" stroke-width="0" fill="#a5d8ff"></path><path d="M32 0 C414.32 2.12, 796.09 2.93, 1033 0 M32 0 C404.17 2.52, 777.06 1.96, 1033 0 M1033 0 C1054.01 1.04, 1065.05 10.36, 1065 32 M1033 0 C1056.27 0.87, 1064.11 10.25, 1065 32 M1065 32 C1062.36 80.69, 1062.88 124.99, 1065 194 M1065 32 C1064.88 72.62, 1066.06 114.47, 1065 194 M1065 194 C1066.26 214.5, 1056.25 226.21, 1033 226 M1065 194 C1066.6 214.55, 1055.2 225.97, 1033 226 M1033 226 C725.74 226.48, 418.58 226.6, 32 226 M1033 226 C728.19 225.09, 422.82 224.8, 32 226 M32 226 C11.36 227.98, -1.3 214.03, 0 194 M32 226 C9.12 228.01, -2.05 214.74, 0 194 M0 194 C2.18 157.85, 2.34 118.5, 0 32 M0 194 C-1.51 129.87, -0.71 66.79, 0 32 M0 32 C0.39 9.39, 10.95 1.68, 32 0 M0 32 C0.98 9.27, 11.31 -2.23, 32 0" stroke="#1971c2" stroke-width="2" fill="none"></path></g><g stroke-linecap="round"><g transform="translate(225.05319032179318 253.34172706636642) rotate(0 0.2741656559280159 112.34005524655262)"><path d="M-0.48 0.41 C-0.14 37.9, 0.93 188.28, 1.28 225.55 M1.47 -0.42 C1.78 36.69, 0.72 186.31, 0.72 223.88" stroke="#1971c2" stroke-width="2" fill="none"></path></g></g><mask></mask><g stroke-linecap="round"><g transform="translate(437.9559853979906 253.6413376520858) rotate(0 0.2741656559280159 112.34005524655262)"><path d="M0.74 0.87 C1.09 38.13, 1.85 186.55, 1.67 224.03 M-0.34 0.27 C0 37.65, 0.9 187.95, 1.31 225.22" stroke="#1971c2" stroke-width="2" fill="none"></path></g></g><mask></mask><g stroke-linecap="round"><g transform="translate(651.4244612783266 252.5569546693661) rotate(0 0.2741656559280159 112.34005524655262)"><path d="M1.12 -0.65 C0.95 36.83, -0.3 188.28, -0.32 225.73 M0.25 1.62 C0.39 38.71, 1.9 186.92, 1.93 224.15" stroke="#1971c2" stroke-width="2" fill="none"></path></g></g><mask></mask><g stroke-linecap="round"><g transform="translate(864.4931407320435 253.35699163795496) rotate(0 0.27416565592807274 112.34005524655257)"><path d="M-0.87 1.05 C-0.89 38.49, 0.79 186.65, 0.99 224.03 M0.87 0.55 C0.63 38.2, 0.5 188.1, 0.27 225.22" stroke="#1971c2" stroke-width="2" fill="none"></path></g></g><mask></mask><g stroke-linecap="round" transform="translate(11.79069625851912 494.79048226634154) rotate(0 532.5 113)"><path d="M32 0 C380.56 -6.22, 726.25 -5.93, 1033 0 C1052 -1.78, 1062.06 8.58, 1065 32 C1068.61 68.97, 1061.88 101.06, 1065 194 C1067.54 213, 1057.34 227.95, 1033 226 C742.82 225.01, 455.57 225, 32 226 C8.7 229.34, 2.93 213.99, 0 194 C-1.14 138.1, -1.07 81.63, 0 32 C-0.46 12.83, 11.82 3.44, 32 0" stroke="none" stroke-width="0" fill="#a5d8ff"></path><path d="M32 0 C320.5 -0.61, 610.05 0.87, 1033 0 M32 0 C320.73 -2.79, 609.02 -2.74, 1033 0 M1033 0 C1054.72 0.22, 1066.92 10, 1065 32 M1033 0 C1054.32 1.07, 1066.24 11.72, 1065 32 M1065 32 C1066.25 86.4, 1064.47 139.08, 1065 194 M1065 32 C1065.03 82.01, 1064.76 131.57, 1065 194 M1065 194 C1064.38 214.64, 1053.77 224.76, 1033 226 M1065 194 C1065.8 213.84, 1054.58 227.08, 1033 226 M1033 226 C808.27 227.77, 584.53 228.31, 32 226 M1033 226 C824.54 222.67, 616.95 223.25, 32 226 M32 226 C11.78 227.49, 1.98 214.52, 0 194 M32 226 C10.27 226.67, -0.07 213.29, 0 194 M0 194 C0.69 138.9, -1.12 85.32, 0 32 M0 194 C0.63 140.81, 1.59 85.7, 0 32 M0 32 C0.94 11.71, 10.12 -0.97, 32 0 M0 32 C-0.69 10.78, 10.05 -1.9, 32 0" stroke="#1971c2" stroke-width="2" fill="none"></path></g><g stroke-linecap="round"><g transform="translate(225.05319032179318 494.158384471977) rotate(0 0.2741656559280159 112.3400552465526)"><path d="M-1.16 0.73 C-0.89 38.22, 1.16 187.09, 1.61 224.54 M0.43 0.07 C0.64 37.79, 1.07 188.76, 1.21 226" stroke="#1971c2" stroke-width="2" fill="none"></path></g></g><mask></mask><g stroke-linecap="round"><g transform="translate(437.9559853979906 494.4579950576963) rotate(0 0.2741656559280159 112.3400552465526)"><path d="M1.06 -0.14 C1.51 37.31, 1.51 188.1, 1.54 225.44 M0.15 -1.26 C0.64 35.79, 1 186.04, 1.12 223.71" stroke="#1971c2" stroke-width="2" fill="none"></path></g></g><mask></mask><g stroke-linecap="round"><g transform="translate(651.4244612783266 493.3736120749767) rotate(0 0.2741656559280159 112.3400552465526)"><path d="M0.99 0.76 C1.02 38.1, 1.3 186.67, 1.23 223.89 M0.06 0.11 C-0.1 37.59, 0.68 187.52, 0.64 225.01" stroke="#1971c2" stroke-width="2" fill="none"></path></g></g><mask></mask><g stroke-linecap="round"><g transform="translate(864.4931407320435 494.17364904356543) rotate(0 0.27416565592807274 112.3400552465526)"><path d="M0.68 -0.79 C0.62 36.42, 0.57 186.44, 0.58 224.04 M-0.42 1.4 C-0.73 38.7, -0.44 187.77, -0.35 225.24" stroke="#1971c2" stroke-width="2" fill="none"></path></g></g><mask></mask><g stroke-linecap="round" transform="translate(11.79069625851912 733.315861244902) rotate(0 532.5 113.00000000000006)"><path d="M32 0 C399.34 -3.54, 766 -3.4, 1033 0 C1052 2.4, 1062.56 7.37, 1065 32 C1065.27 68.22, 1064.15 114.88, 1065 194 C1066.74 216.52, 1050.89 225.57, 1033 226 C645.56 221, 257.59 221.59, 32 226 C11.55 224.91, 1.67 214.97, 0 194 C5.36 136.78, -1.2 85.44, 0 32 C3.29 11.76, 8.43 -3.48, 32 0" stroke="none" stroke-width="0" fill="#ffc9c9"></path><path d="M32 0 C384.25 -2.02, 737.67 -2.75, 1033 0 M32 0 C269.88 -2.75, 507.19 -2.62, 1033 0 M1033 0 C1055.4 1.26, 1063.72 8.81, 1065 32 M1033 0 C1054.03 2.03, 1065.94 9.6, 1065 32 M1065 32 C1065.86 88.73, 1066.57 145.44, 1065 194 M1065 32 C1067.13 89.07, 1066.34 145.09, 1065 194 M1065 194 C1064.88 216.59, 1054.27 227.3, 1033 226 M1065 194 C1063.58 216.59, 1054.48 227.14, 1033 226 M1033 226 C696.21 225.5, 360.37 226.02, 32 226 M1033 226 C662.03 222.35, 291.19 222.06, 32 226 M32 226 C11.71 224.66, -0.63 216.76, 0 194 M32 226 C11.03 226.78, 1 214.18, 0 194 M0 194 C-0.69 150.03, -0.06 103.58, 0 32 M0 194 C-1.36 138.25, -0.89 83.56, 0 32 M0 32 C-0.23 10.27, 9.95 0.33, 32 0 M0 32 C-0.28 11.72, 10.22 1.18, 32 0" stroke="#e03131" stroke-width="2" fill="none"></path></g><g stroke-linecap="round"><g transform="translate(225.05319032179318 732.6837634505374) rotate(0 0.2741656559280159 112.34005524655254)"><path d="M0.38 0.88 C0.24 38.27, -0.15 186.48, -0.17 223.93 M-0.88 0.3 C-0.69 37.87, 2.13 187.84, 2.17 225.07" stroke="#e03131" stroke-width="2" fill="none"></path></g></g><mask></mask><g stroke-linecap="round"><g transform="translate(437.9559853979906 732.9833740362568) rotate(0 0.2741656559280159 112.34005524655265)"><path d="M-0.72 -0.75 C-0.74 36.7, -0.05 187.88, 0.24 225.58 M1.11 1.47 C0.87 38.52, -0.76 186.93, -0.86 223.93" stroke="#e03131" stroke-width="2" fill="none"></path></g></g><mask></mask><g stroke-linecap="round"><g transform="translate(651.424461278327 731.8989910535371) rotate(0 0.2741656559280159 112.34005524655254)"><path d="M-0.3 0.9 C-0.01 38.59, 1.01 187.93, 1.03 225.41 M1.74 0.32 C1.97 37.74, 0.23 186.38, 0.33 223.67" stroke="#e03131" stroke-width="2" fill="none"></path></g></g><mask></mask><g stroke-linecap="round"><g transform="translate(864.4931407320435 732.699028022126) rotate(0 0.27416565592807274 112.3400552465526)"><path d="M0.48 0.73 C0.5 38.22, -0.31 188.36, -0.19 225.82 M-0.73 0.07 C-0.3 37.17, 1.88 187.05, 2.13 224.29" stroke="#e03131" stroke-width="2" fill="none"></path></g></g><mask></mask><g stroke-linecap="round" transform="translate(1106.019806724448 10) rotate(0 145.03416213764535 152.9451164360624)"><path d="M32 0 C109.32 -0.38, 182.95 -2.14, 258.07 0 C280.25 -1.83, 292.8 10.22, 290.07 32 C286.9 118.08, 289.98 206.35, 290.07 273.89 C291.95 298.56, 281.38 308.75, 258.07 305.89 C191.34 304.74, 128.51 301.7, 32 305.89 C9.05 306.16, -3.21 297.04, 0 273.89 C1.18 189.07, 1.7 100.49, 0 32 C-3.54 12.76, 12.17 -1.67, 32 0" stroke="none" stroke-width="0" fill="#ffec99"></path><path d="M32 0 C116.88 0.47, 201.44 -0.04, 258.07 0 M32 0 C122.01 0.46, 212.07 1.68, 258.07 0 M258.07 0 C278.43 -1.9, 289.62 10.51, 290.07 32 M258.07 0 C277.38 0.72, 291.85 10.61, 290.07 32 M290.07 32 C287.22 82.78, 287.12 131.2, 290.07 273.89 M290.07 32 C291.22 97.21, 290.47 161.56, 290.07 273.89 M290.07 273.89 C290.2 294.06, 278.39 305.83, 258.07 305.89 M290.07 273.89 C289.72 296.58, 279.97 305.06, 258.07 305.89 M258.07 305.89 C187.86 306.16, 117.99 305.43, 32 305.89 M258.07 305.89 C197.02 306.02, 135.28 306.15, 32 305.89 M32 305.89 C11.25 307.72, 1.41 294.18, 0 273.89 M32 305.89 C12.51 305.68, 0.04 293.56, 0 273.89 M0 273.89 C-1.11 193.01, -0.71 115.06, 0 32 M0 273.89 C0.94 208.51, -0.03 142.29, 0 32 M0 32 C0.07 9.29, 12.18 0.2, 32 0 M0 32 C0.74 10.27, 10.38 -1.44, 32 0" stroke="#f08c00" stroke-width="2" fill="none"></path></g><g stroke-linecap="round" transform="translate(1106.019806724448 332.6081623156483) rotate(0 145.03416213764535 152.9451164360624)"><path d="M32 0 C82.6 2.17, 132.18 -0.88, 258.07 0 C280.99 2.72, 293.64 10.86, 290.07 32 C295.01 86.72, 294.3 135.51, 290.07 273.89 C292.85 298.53, 276.2 308.25, 258.07 305.89 C202.12 301.53, 145.1 300.9, 32 305.89 C7.84 305.89, 0.1 292, 0 273.89 C-4.69 223.35, -1.55 175.64, 0 32 C0.06 7.42, 9.99 -2.65, 32 0" stroke="none" stroke-width="0" fill="#eebefa"></path><path d="M32 0 C111.66 -0.31, 190.66 -0.38, 258.07 0 M32 0 C77.14 -2.38, 122.54 -2.25, 258.07 0 M258.07 0 C277.62 -1.99, 291.3 12.66, 290.07 32 M258.07 0 C278.79 -2.14, 291.66 12.56, 290.07 32 M290.07 32 C290.55 118.02, 287.51 207.44, 290.07 273.89 M290.07 32 C290.8 87.24, 290.42 142.97, 290.07 273.89 M290.07 273.89 C290.96 295.58, 278.01 304.19, 258.07 305.89 M290.07 273.89 C290.9 295.88, 278.7 307.87, 258.07 305.89 M258.07 305.89 C203.82 308.06, 144.75 306.48, 32 305.89 M258.07 305.89 C175.88 308.19, 94.91 307.88, 32 305.89 M32 305.89 C11.71 306.45, -1.24 294.89, 0 273.89 M32 305.89 C8.97 307.19, 1.14 294.12, 0 273.89 M0 273.89 C-3.22 207.03, -1.02 143.29, 0 32 M0 273.89 C0.85 203.5, 1.96 131.48, 0 32 M0 32 C1.08 10.19, 10.65 -0.14, 32 0 M0 32 C-2.27 8.96, 9.66 -0.8, 32 0" stroke="#9c36b5" stroke-width="2" fill="none"></path></g><g stroke-linecap="round" transform="translate(1106.019806724448 655.2163246312966) rotate(0 145.03416213764535 152.9451164360624)"><path d="M32 0 C123.57 1.52, 210.65 -4.04, 258.07 0 C281.44 -2.89, 293.56 12.78, 290.07 32 C289.87 119.64, 289.08 211.17, 290.07 273.89 C290.24 292.42, 280.77 303.97, 258.07 305.89 C180.98 303.24, 101.13 300.35, 32 305.89 C13.21 304.08, -2.57 295.31, 0 273.89 C-6.28 192.65, -5.78 113.08, 0 32 C-1.88 7.9, 12.99 1.24, 32 0" stroke="none" stroke-width="0" fill="#ffec99"></path><path d="M32 0 C116.02 3.39, 197.88 0.49, 258.07 0 M32 0 C80.79 2.26, 132.14 1.5, 258.07 0 M258.07 0 C277.54 1.38, 291.72 11.89, 290.07 32 M258.07 0 C278.28 -1.93, 292.1 8.82, 290.07 32 M290.07 32 C291.13 81.58, 291.96 130.06, 290.07 273.89 M290.07 32 C288.62 107.81, 287.76 185.07, 290.07 273.89 M290.07 273.89 C290.64 294.61, 281.12 304.83, 258.07 305.89 M290.07 273.89 C290.26 296.69, 281.59 307.14, 258.07 305.89 M258.07 305.89 C209.1 308.65, 162.26 308.1, 32 305.89 M258.07 305.89 C189.49 306.37, 120.28 306.27, 32 305.89 M32 305.89 C11.8 306.88, -0.96 294.64, 0 273.89 M32 305.89 C12.88 304.8, -1.79 293.39, 0 273.89 M0 273.89 C-1.79 189.72, -1.83 103.49, 0 32 M0 273.89 C0.79 187.55, 0.93 100.41, 0 32 M0 32 C-1.48 9.79, 9.97 -1.7, 32 0 M0 32 C1.21 9.48, 12.14 0.27, 32 0" stroke="#f08c00" stroke-width="2" fill="none"></path></g></svg>